<?xml version="1.0" encoding="UTF-8" standalone="no"?>
<svg
   xmlns:dc="http://purl.org/dc/elements/1.1/"
   xmlns:cc="http://creativecommons.org/ns#"
   xmlns:rdf="http://www.w3.org/1999/02/22-rdf-syntax-ns#"
   xmlns:svg="http://www.w3.org/2000/svg"
   xmlns="http://www.w3.org/2000/svg"
   xmlns:xlink="http://www.w3.org/1999/xlink"
   xmlns:sodipodi="http://sodipodi.sourceforge.net/DTD/sodipodi-0.dtd"
   xmlns:inkscape="http://www.inkscape.org/namespaces/inkscape"
   width="400"
   height="400"
   viewBox="0 0 200 200"
   id="svg2"
   version="1.1"
   inkscape:version="0.91 r13725"
   sodipodi:docname="icon.svg"
   inkscape:export-filename="C:\Users\User\Sync\NetBeansProjects\PotteriesHackspace\_admin\icon.png"
   inkscape:export-xdpi="180"
   inkscape:export-ydpi="180"><metadata
   id="metadata20">
  <rdf:RDF>
    <cc:Work
       rdf:about="">
      <dc:format>image/svg+xml</dc:format>
      <dc:type
         rdf:resource="http://purl.org/dc/dcmitype/StillImage" />
      <dc:title></dc:title>
    </cc:Work>
  </rdf:RDF>
</metadata>
<defs
   id="defs18" />
<sodipodi:namedview
   pagecolor="#ffffff"
   bordercolor="#666666"
   borderopacity="1"
   objecttolerance="10"
   gridtolerance="10"
   guidetolerance="10"
   inkscape:pageopacity="0"
   inkscape:pageshadow="2"
   inkscape:window-width="1366"
   inkscape:window-height="705"
   id="namedview16"
   showgrid="false"
   inkscape:zoom="0.5"
   inkscape:cx="279.83106"
   inkscape:cy="305.70613"
   inkscape:window-x="-8"
   inkscape:window-y="-8"
   inkscape:window-maximized="1"
   inkscape:current-layer="svg2" />
<symbol
   id="H">
  <path
     d="M175.262,51.21c-33.712-33.709-88.367-33.709-122.073,0c-33.713,33.712-33.713,88.365,0,122.075     c33.706,33.71,88.364,33.71,122.073,0C208.972,139.575,208.972,84.922,175.262,51.21z M147.78,141.541l-19.69-19.687l6.193-6.193     l-3.275-3.274l-16.645,16.646l3.271,3.277l6.41-6.413l19.695,19.688l-29.514,29.514l-19.692-19.689l3.359-3.356l-23.471-23.474     l-3.363,3.36l-19.687-19.69l29.515-29.515l19.688,19.688l-6.414,6.412l4.031,4.03l16.65-16.647l-4.029-4.03l-6.197,6.196     l-19.689-19.69l29.3-29.295l19.685,19.688l-3.355,3.36l23.47,23.472l3.361-3.36l19.688,19.691L147.78,141.541z"
     id="path5"
     stroke-width="1"
     stroke="#000"
     fill="none" />
</symbol>
<symbol
   id="H-nocirc">
  <path
     d="M147.78,141.541l-19.69-19.687l6.193-6.193     l-3.275-3.274l-16.645,16.646l3.271,3.277l6.41-6.413l19.695,19.688l-29.514,29.514l-19.692-19.689l3.359-3.356l-23.471-23.474     l-3.363,3.36l-19.687-19.69l29.515-29.515l19.688,19.688l-6.414,6.412l4.031,4.03l16.65-16.647l-4.029-4.03l-6.197,6.196     l-19.689-19.69l29.3-29.295l19.685,19.688l-3.355,3.36l23.47,23.472l3.361-3.36l19.688,19.691L147.78,141.541z"
     id="path8"
     stroke-width="0"
     stroke="#000"
     fill="#fff" />
</symbol>
<path
   d="M130,50        L130,18 Q100,8 70,18        L70,50        Q20,100        20,130        L20,187 180,187        180,130        Q180,100        130,50        Z"
   id="path12"
   stroke-width="1"
   stroke="none"
   fill="#ea212e" />
<!--use x="-14" y="-13" xlink:href="#H" -->
<!--use x="-14" y="-13" xlink:href="#H-nocirc"-->
<use
   x="-14"
   y="3"
   xlink:href="#H-nocirc"
   id="use14" />
--&gt;
</svg>
