<?xml version="1.0" encoding="UTF-8" standalone="no"?>
<svg
   xmlns:dc="http://purl.org/dc/elements/1.1/"
   xmlns:cc="http://creativecommons.org/ns#"
   xmlns:rdf="http://www.w3.org/1999/02/22-rdf-syntax-ns#"
   xmlns:svg="http://www.w3.org/2000/svg"
   xmlns="http://www.w3.org/2000/svg"
   xmlns:xlink="http://www.w3.org/1999/xlink"
   xmlns:sodipodi="http://sodipodi.sourceforge.net/DTD/sodipodi-0.dtd"
   xmlns:inkscape="http://www.inkscape.org/namespaces/inkscape"
   width="650"
   height="210"
   viewBox="0 0 650 210"
   id="svg2"
   version="1.1"
   inkscape:version="0.91 r13725"
   sodipodi:docname="logo.svg">
  <metadata
     id="metadata25">
    <rdf:RDF>
      <cc:Work
         rdf:about="">
        <dc:format>image/svg+xml</dc:format>
        <dc:type
           rdf:resource="http://purl.org/dc/dcmitype/StillImage" />
        <dc:title></dc:title>
      </cc:Work>
    </rdf:RDF>
  </metadata>
  <defs
     id="defs23" />
  <sodipodi:namedview
     pagecolor="#ffffff"
     bordercolor="#666666"
     borderopacity="1"
     objecttolerance="10"
     gridtolerance="10"
     guidetolerance="10"
     inkscape:pageopacity="0"
     inkscape:pageshadow="2"
     inkscape:window-width="1366"
     inkscape:window-height="705"
     id="namedview21"
     showgrid="false"
     inkscape:zoom="0.4121813"
     inkscape:cx="556.93817"
     inkscape:cy="105"
     inkscape:window-x="-8"
     inkscape:window-y="-8"
     inkscape:window-maximized="1"
     inkscape:current-layer="svg2" />
  <symbol
     id="H">
    <path
       d="m 175.262,51.21 c -33.712,-33.709 -88.367,-33.709 -122.073,0 -33.713,33.712 -33.713,88.365 0,122.075 33.706,33.71 88.364,33.71 122.073,0 33.71,-33.71 33.71,-88.363 0,-122.075 z m -27.482,90.331 -19.69,-19.687 6.193,-6.193 -3.275,-3.274 -16.645,16.646 3.271,3.277 6.41,-6.413 19.695,19.688 -29.514,29.514 -19.692,-19.689 3.359,-3.356 -23.471,-23.474 -3.363,3.36 -19.687,-19.69 29.515,-29.515 19.688,19.688 -6.414,6.412 4.031,4.03 16.65,-16.647 -4.029,-4.03 -6.197,6.196 -19.689,-19.69 29.3,-29.295 19.685,19.688 -3.355,3.36 23.47,23.472 3.361,-3.36 19.688,19.691 -29.295,29.291 z"
       id="path5"
       inkscape:connector-curvature="0"
       style="fill:#ea212e;stroke:#000000;stroke-width:1" />
  </symbol>
  <symbol
     id="H-nocirc">
    <path
       d="m 147.78,141.541 -19.69,-19.687 6.193,-6.193 -3.275,-3.274 -16.645,16.646 3.271,3.277 6.41,-6.413 19.695,19.688 -29.514,29.514 -19.692,-19.689 3.359,-3.356 -23.471,-23.474 -3.363,3.36 -19.687,-19.69 29.515,-29.515 19.688,19.688 -6.414,6.412 4.031,4.03 16.65,-16.647 -4.029,-4.03 -6.197,6.196 -19.689,-19.69 29.3,-29.295 19.685,19.688 -3.355,3.36 23.47,23.472 3.361,-3.36 19.688,19.691 -29.295,29.291 z"
       id="path8"
       inkscape:connector-curvature="0"
       style="fill:#ffffff;stroke:#000000;stroke-width:0" />
  </symbol>
  <path
     d="m 130,50 0,-32 Q 100,8 70,18 l 0,32 q -50,50 -50,80 l 0,57 160,0 0,-57 q 0,-30 -50,-80 z"
     id="path12"
     inkscape:connector-curvature="0"
     style="fill:#ea212e;stroke:none;stroke-width:0" />
  <!-- start lettering -->
  <symbol
     id="lettering">
    <path
       d="m 181.707,53.411 c 0,2.876 -0.5,5.643 -1.5,8.3 -1.001,2.657 -2.626,5.001 -4.877,7.033 -2.25,2.033 -5.174,3.65 -8.769,4.853 -3.596,1.204 -7.987,1.806 -13.177,1.806 l -3.282,0 0,15.38 c 0,1.25 0.142,2.258 0.422,3.024 0.282,0.766 0.657,1.345 1.126,1.735 0.469,0.392 1.015,0.649 1.641,0.774 0.625,0.125 1.267,0.187 1.922,0.187 l 5.861,0 0,5.111 -35.074,0 0,-5.111 4.033,0 c 0.719,0 1.375,-0.07 1.969,-0.211 0.594,-0.141 1.109,-0.43 1.548,-0.867 0.438,-0.438 0.782,-1.063 1.032,-1.876 0.25,-0.812 0.375,-1.906 0.375,-3.282 l 0,-46.282 c 0,-1.281 -0.125,-2.305 -0.375,-3.071 -0.25,-0.766 -0.603,-1.352 -1.055,-1.758 -0.454,-0.406 -0.979,-0.68 -1.571,-0.821 -0.595,-0.141 -1.235,-0.21 -1.923,-0.21 l -4.033,0 0,-5.065 29.495,0 c 4.438,0 8.3,0.468 11.583,1.406 3.281,0.938 6.008,2.291 8.182,4.056 2.172,1.767 3.79,3.9 4.854,6.401 1.062,2.502 1.593,5.33 1.593,8.488 z m -31.604,16.411 2.345,0 c 2.375,0 4.391,-0.296 6.049,-0.891 1.656,-0.593 3.008,-1.531 4.057,-2.813 1.047,-1.281 1.812,-2.938 2.297,-4.97 0.484,-2.032 0.728,-4.485 0.728,-7.362 0,-2.563 -0.211,-4.79 -0.634,-6.682 -0.422,-1.891 -1.095,-3.454 -2.016,-4.689 -0.923,-1.235 -2.126,-2.158 -3.61,-2.767 -1.485,-0.609 -3.306,-0.915 -5.464,-0.915 l -3.751,0 0,31.089 z m 89.819,5.862 c 0,9.035 -2.117,15.772 -6.354,20.21 -4.237,4.44 -10.465,6.659 -18.687,6.659 -3.845,0 -7.3,-0.556 -10.363,-1.664 -3.063,-1.11 -5.667,-2.774 -7.807,-4.995 -2.142,-2.219 -3.783,-5.018 -4.925,-8.394 -1.141,-3.376 -1.711,-7.314 -1.711,-11.817 0,-9.034 2.117,-15.755 6.354,-20.163 4.235,-4.407 10.481,-6.611 18.733,-6.611 3.845,0 7.292,0.547 10.339,1.641 3.049,1.096 5.644,2.751 7.785,4.97 2.141,2.22 3.782,5.01 4.924,8.37 1.142,3.362 1.712,7.293 1.712,11.794 z m -34.935,0 c 0,3.409 0.181,6.409 0.54,9.004 0.359,2.594 0.938,4.767 1.735,6.518 0.797,1.751 1.835,3.071 3.117,3.962 1.282,0.891 2.845,1.336 4.689,1.336 1.844,0 3.399,-0.445 4.666,-1.336 1.266,-0.891 2.298,-2.211 3.095,-3.962 0.797,-1.75 1.367,-3.923 1.711,-6.518 0.344,-2.595 0.517,-5.595 0.517,-9.004 0,-3.438 -0.181,-6.447 -0.54,-9.026 -0.359,-2.579 -0.938,-4.728 -1.734,-6.447 -0.797,-1.719 -1.837,-3.008 -3.118,-3.869 -1.282,-0.859 -2.845,-1.29 -4.689,-1.29 -1.844,0 -3.407,0.431 -4.688,1.29 -1.283,0.86 -2.314,2.15 -3.096,3.869 -0.781,1.72 -1.344,3.868 -1.688,6.447 -0.344,2.579 -0.517,5.588 -0.517,9.026 z m 70.548,19.132 c 1.25,0 2.445,-0.086 3.586,-0.258 1.141,-0.171 2.212,-0.383 3.213,-0.633 l 0,6.237 c -0.5,0.25 -1.181,0.516 -2.039,0.797 -0.861,0.282 -1.861,0.54 -3.002,0.773 -1.142,0.235 -2.432,0.43 -3.869,0.587 -1.438,0.155 -3,0.234 -4.688,0.234 -2.157,0 -4.11,-0.258 -5.861,-0.773 -1.751,-0.515 -3.235,-1.375 -4.454,-2.579 -1.22,-1.203 -2.158,-2.767 -2.814,-4.689 -0.656,-1.922 -0.984,-4.29 -0.984,-7.103 l 0,-30.716 -7.223,0 0,-4.923 c 2.062,0 3.906,-0.405 5.532,-1.219 1.626,-0.812 2.923,-1.75 3.892,-2.813 1.97,-2.063 3.439,-5.236 4.408,-9.519 l 7.972,0 0,11.91 12.286,0 0,6.565 -12.286,0 0,29.729 c 0,2.908 0.493,5.034 1.478,6.378 0.984,1.343 2.601,2.015 4.853,2.015 z m 39.833,0 c 1.251,0 2.446,-0.086 3.587,-0.258 1.141,-0.171 2.211,-0.383 3.213,-0.633 l 0,6.237 c -0.5,0.25 -1.181,0.516 -2.04,0.797 -0.86,0.282 -1.86,0.54 -3.001,0.773 -1.143,0.235 -2.432,0.43 -3.869,0.587 -1.438,0.155 -3,0.234 -4.688,0.234 -2.157,0 -4.111,-0.258 -5.862,-0.773 -1.75,-0.516 -3.234,-1.375 -4.454,-2.579 -1.219,-1.203 -2.157,-2.767 -2.814,-4.689 -0.655,-1.922 -0.983,-4.29 -0.983,-7.103 l 0,-30.716 -7.223,0 0,-4.923 c 2.064,0 3.908,-0.405 5.534,-1.219 1.625,-0.812 2.923,-1.75 3.892,-2.813 1.97,-2.063 3.438,-5.236 4.408,-9.519 l 7.972,0 0,11.91 12.285,0 0,6.565 -12.285,0 0,29.729 c 0,2.908 0.492,5.034 1.478,6.378 0.981,1.343 2.599,2.015 4.85,2.015 z m 39.083,7.737 c -4.064,0 -7.651,-0.594 -10.762,-1.781 -3.111,-1.188 -5.714,-2.907 -7.808,-5.159 -2.095,-2.251 -3.673,-5.009 -4.735,-8.276 -1.064,-3.267 -1.596,-6.995 -1.596,-11.184 0,-4.501 0.531,-8.456 1.596,-11.863 1.062,-3.407 2.609,-6.251 4.642,-8.534 2.032,-2.281 4.525,-3.993 7.479,-5.135 2.953,-1.14 6.322,-1.711 10.104,-1.711 3.471,0 6.596,0.493 9.378,1.477 2.783,0.985 5.143,2.447 7.08,4.384 1.939,1.94 3.424,4.346 4.455,7.222 1.032,2.877 1.548,6.221 1.548,10.035 l 0,4.924 -31.464,0 c 0.094,3.22 0.445,5.986 1.055,8.299 0.609,2.314 1.453,4.22 2.532,5.721 1.078,1.5 2.392,2.61 3.938,3.329 1.548,0.72 3.322,1.078 5.322,1.078 1.658,0 3.189,-0.194 4.596,-0.586 1.406,-0.39 2.68,-0.938 3.822,-1.641 1.141,-0.703 2.141,-1.531 3.001,-2.485 0.858,-0.954 1.571,-1.977 2.133,-3.071 1.72,0.938 2.579,2.501 2.579,4.689 0,1.376 -0.374,2.681 -1.125,3.916 -0.75,1.235 -1.907,2.321 -3.471,3.259 -1.564,0.938 -3.524,1.688 -5.885,2.251 -2.358,0.56 -5.164,0.842 -8.414,0.842 z M 353.56,55.146 c -2.688,0 -4.822,1.329 -6.4,3.986 -1.579,2.657 -2.446,6.55 -2.603,11.676 l 16.6,0 c 0,-2.438 -0.141,-4.626 -0.422,-6.565 -0.281,-1.938 -0.727,-3.579 -1.336,-4.923 -0.61,-1.344 -1.392,-2.376 -2.345,-3.095 -0.954,-0.72 -2.118,-1.079 -3.494,-1.079 z m 61.262,46.469 -32.073,0 0,-5.111 0.28,0 c 1.095,0 2.095,-0.078 3.002,-0.235 0.906,-0.155 1.688,-0.476 2.344,-0.961 0.657,-0.484 1.165,-1.18 1.525,-2.087 0.357,-0.906 0.539,-2.109 0.539,-3.61 l 0,-27.853 c 0,-1.407 -0.164,-2.54 -0.492,-3.4 -0.329,-0.859 -0.797,-1.524 -1.407,-1.993 -0.61,-0.469 -1.337,-0.774 -2.181,-0.915 -0.845,-0.141 -1.797,-0.211 -2.861,-0.211 l -0.28,0 0,-5.111 19.413,0 1.922,7.503 0.469,0 c 0.625,-1.438 1.313,-2.697 2.064,-3.775 0.75,-1.079 1.647,-1.977 2.695,-2.696 1.047,-0.718 2.281,-1.258 3.705,-1.618 1.422,-0.359 3.118,-0.54 5.087,-0.54 3.782,0 6.565,0.665 8.347,1.993 1.781,1.33 2.673,3.259 2.673,5.791 0,2.939 -1.063,5.221 -3.188,6.847 -2.126,1.625 -5.127,2.438 -9.003,2.438 0,-1.313 -0.07,-2.47 -0.211,-3.47 -0.142,-1 -0.392,-1.829 -0.751,-2.485 -0.359,-0.656 -0.844,-1.157 -1.453,-1.501 -0.609,-0.343 -1.367,-0.516 -2.274,-0.516 -1.125,0 -2.095,0.282 -2.907,0.845 -0.812,0.562 -1.5,1.289 -2.062,2.18 -0.563,0.891 -1.025,1.899 -1.383,3.025 -0.361,1.126 -0.642,2.259 -0.845,3.4 -0.204,1.141 -0.337,2.227 -0.399,3.259 -0.062,1.031 -0.094,1.922 -0.094,2.672 l 0,16.6 c 0,1.406 0.172,2.54 0.518,3.399 0.343,0.86 0.812,1.508 1.406,1.946 0.593,0.438 1.305,0.727 2.133,0.867 0.828,0.14 1.712,0.211 2.649,0.211 l 3.095,0 0,5.112 z m 19.951,-5.111 c 0.719,0 1.477,-0.07 2.273,-0.211 0.798,-0.141 1.532,-0.43 2.205,-0.867 0.672,-0.438 1.234,-1.063 1.688,-1.876 0.453,-0.812 0.68,-1.906 0.68,-3.282 l 0,-29.167 c 0,-1.281 -0.227,-2.305 -0.68,-3.071 -0.453,-0.766 -1.023,-1.36 -1.711,-1.782 -0.688,-0.422 -1.431,-0.695 -2.229,-0.82 -0.797,-0.125 -1.539,-0.188 -2.227,-0.188 l -1.125,0 0,-5.111 22.554,0 0,40.139 c 0,1.376 0.228,2.47 0.681,3.282 0.453,0.813 1.016,1.438 1.688,1.876 0.672,0.438 1.414,0.727 2.228,0.867 0.814,0.14 1.563,0.211 2.251,0.211 l 1.125,0 0,5.111 -30.525,0 0,-5.111 1.124,0 z m 5.487,-61.943 c 0,-1.22 0.211,-2.266 0.633,-3.142 0.422,-0.875 1,-1.586 1.735,-2.134 0.734,-0.546 1.594,-0.953 2.579,-1.219 0.984,-0.266 2.055,-0.399 3.213,-0.399 1.093,0 2.14,0.133 3.141,0.399 1,0.266 1.875,0.672 2.626,1.219 0.75,0.547 1.352,1.259 1.805,2.134 0.453,0.876 0.681,1.922 0.681,3.142 0,1.188 -0.228,2.219 -0.681,3.094 -0.453,0.875 -1.055,1.594 -1.805,2.157 -0.751,0.562 -1.626,0.985 -2.626,1.266 -1.001,0.282 -2.048,0.422 -3.141,0.422 -1.158,0 -2.229,-0.141 -3.213,-0.422 -0.985,-0.281 -1.845,-0.703 -2.579,-1.266 -0.735,-0.563 -1.313,-1.282 -1.735,-2.157 -0.422,-0.875 -0.633,-1.906 -0.633,-3.094 z m 55.917,67.992 c -4.064,0 -7.651,-0.594 -10.761,-1.781 -3.111,-1.188 -5.715,-2.907 -7.809,-5.159 -2.094,-2.251 -3.673,-5.009 -4.735,-8.276 -1.063,-3.267 -1.595,-6.995 -1.595,-11.184 0,-4.501 0.531,-8.456 1.595,-11.863 1.062,-3.407 2.61,-6.251 4.643,-8.534 2.032,-2.281 4.524,-3.993 7.479,-5.135 2.954,-1.14 6.322,-1.711 10.104,-1.711 3.471,0 6.596,0.493 9.379,1.477 2.782,0.985 5.142,2.447 7.08,4.384 1.938,1.94 3.424,4.346 4.455,7.222 1.032,2.877 1.547,6.221 1.547,10.035 l 0,4.924 -31.463,0 c 0.093,3.22 0.445,5.986 1.055,8.299 0.609,2.314 1.453,4.22 2.531,5.721 1.08,1.5 2.393,2.61 3.939,3.329 1.548,0.72 3.321,1.078 5.322,1.078 1.657,0 3.189,-0.194 4.596,-0.586 1.406,-0.39 2.68,-0.938 3.821,-1.641 1.142,-0.703 2.142,-1.531 3.001,-2.485 0.859,-0.954 1.572,-1.977 2.134,-3.071 1.72,0.938 2.579,2.501 2.579,4.689 0,1.376 -0.375,2.681 -1.125,3.916 -0.75,1.235 -1.908,2.321 -3.471,3.259 -1.563,0.938 -3.525,1.688 -5.885,2.251 -2.36,0.56 -5.165,0.842 -8.416,0.842 z m -0.891,-47.407 c -2.689,0 -4.822,1.329 -6.4,3.986 -1.579,2.657 -2.446,6.55 -2.603,11.676 l 16.6,0 c 0,-2.438 -0.141,-4.626 -0.422,-6.565 -0.282,-1.938 -0.727,-3.579 -1.336,-4.923 -0.611,-1.344 -1.393,-2.376 -2.346,-3.095 -0.953,-0.72 -2.117,-1.079 -3.493,-1.079 z m 49.446,47.407 c -3.471,0 -6.433,-0.282 -8.887,-0.844 -2.455,-0.563 -4.454,-1.344 -6.002,-2.345 -1.547,-1 -2.672,-2.187 -3.376,-3.563 -0.704,-1.375 -1.055,-2.86 -1.055,-4.455 0,-1.563 0.305,-2.821 0.913,-3.775 0.61,-0.953 1.376,-1.695 2.299,-2.228 0.922,-0.531 1.898,-0.883 2.931,-1.054 1.031,-0.172 1.969,-0.258 2.813,-0.258 0,2.001 0.249,3.798 0.75,5.393 0.5,1.594 1.203,2.947 2.109,4.056 0.906,1.11 1.994,1.961 3.26,2.556 1.266,0.595 2.68,0.892 4.244,0.892 1.656,0 3.086,-0.172 4.29,-0.517 1.203,-0.344 2.188,-0.821 2.954,-1.431 0.767,-0.609 1.337,-1.312 1.711,-2.109 0.375,-0.798 0.563,-1.633 0.563,-2.509 0,-1.062 -0.196,-2.008 -0.586,-2.837 -0.391,-0.828 -1.04,-1.609 -1.946,-2.344 -0.907,-0.735 -2.117,-1.454 -3.634,-2.157 -1.517,-0.704 -3.4,-1.446 -5.65,-2.228 -2.595,-0.906 -4.884,-1.868 -6.87,-2.884 -1.984,-1.016 -3.657,-2.171 -5.018,-3.469 -1.359,-1.297 -2.391,-2.782 -3.095,-4.455 -0.702,-1.671 -1.054,-3.587 -1.054,-5.744 0,-2.562 0.492,-4.798 1.477,-6.706 0.984,-1.905 2.383,-3.493 4.196,-4.759 1.812,-1.266 3.985,-2.211 6.517,-2.837 2.533,-0.625 5.347,-0.938 8.441,-0.938 3.032,0 5.611,0.258 7.736,0.773 2.127,0.517 3.861,1.196 5.205,2.04 1.345,0.844 2.33,1.798 2.955,2.861 0.625,1.062 0.938,2.141 0.938,3.235 0,2.158 -0.758,3.799 -2.273,4.924 -1.518,1.125 -4.025,1.688 -7.527,1.688 0,-3.189 -0.711,-5.666 -2.133,-7.433 -1.422,-1.766 -3.525,-2.649 -6.307,-2.649 -1.032,0 -2.024,0.125 -2.979,0.375 -0.953,0.25 -1.781,0.625 -2.484,1.125 -0.704,0.5 -1.266,1.118 -1.688,1.853 -0.423,0.734 -0.635,1.602 -0.635,2.602 0,1.032 0.196,1.954 0.588,2.767 0.39,0.813 1.078,1.587 2.062,2.322 0.985,0.735 2.321,1.477 4.01,2.227 1.688,0.75 3.845,1.579 6.471,2.485 2.125,0.75 4.086,1.602 5.885,2.556 1.797,0.954 3.345,2.047 4.643,3.282 1.297,1.236 2.305,2.642 3.025,4.221 0.717,1.579 1.077,3.384 1.077,5.416 0,2.657 -0.462,5.034 -1.384,7.128 -0.922,2.095 -2.273,3.86 -4.056,5.298 -1.782,1.438 -3.971,2.54 -6.565,3.306 -2.592,0.763 -5.546,1.147 -8.859,1.147 z m -376.857,81.377 0,-4.033 1.266,0 c 1.094,0 2.117,-0.078 3.07,-0.235 0.954,-0.155 1.783,-0.476 2.486,-0.961 0.703,-0.483 1.266,-1.179 1.688,-2.087 0.422,-0.906 0.633,-2.109 0.633,-3.61 l 0,-22.507 -31.229,0 0,22.507 c 0,1.501 0.211,2.705 0.633,3.61 0.422,0.908 0.984,1.604 1.688,2.087 0.704,0.485 1.54,0.806 2.509,0.961 0.968,0.157 1.985,0.235 3.048,0.235 l 1.268,0 0,4.033 -27.948,0 0,-4.033 1.22,0 c 1.094,0 2.116,-0.078 3.07,-0.235 0.953,-0.155 1.79,-0.476 2.51,-0.961 0.718,-0.483 1.281,-1.179 1.688,-2.087 0.406,-0.906 0.609,-2.109 0.609,-3.61 l 0,-47.078 c 0,-1.406 -0.211,-2.54 -0.633,-3.4 -0.422,-0.859 -0.993,-1.524 -1.711,-1.993 -0.721,-0.469 -1.556,-0.774 -2.51,-0.915 -0.953,-0.141 -1.962,-0.211 -3.023,-0.211 l -1.22,0 0,-4.032 27.948,0 0,4.032 -1.268,0 c -1.062,0 -2.08,0.079 -3.048,0.235 -0.969,0.157 -1.805,0.477 -2.509,0.962 -0.703,0.484 -1.266,1.18 -1.688,2.086 -0.422,0.906 -0.633,2.109 -0.633,3.61 l 0,19.413 31.229,0 0,-19.413 c 0,-1.5 -0.211,-2.704 -0.633,-3.61 -0.422,-0.907 -0.984,-1.603 -1.688,-2.086 -0.703,-0.485 -1.532,-0.805 -2.486,-0.962 -0.953,-0.156 -1.977,-0.235 -3.07,-0.235 l -1.266,0 0,-4.032 27.946,0 0,4.032 -1.218,0 c -1.096,0 -2.119,0.079 -3.072,0.235 -0.954,0.157 -1.79,0.477 -2.509,0.962 -0.72,0.484 -1.282,1.18 -1.688,2.086 -0.406,0.906 -0.609,2.109 -0.609,3.61 l 0,47.173 c 0,1.406 0.211,2.54 0.634,3.4 0.421,0.86 0.991,1.508 1.712,1.946 0.718,0.438 1.554,0.727 2.508,0.868 0.953,0.141 1.961,0.211 3.025,0.211 l 1.218,0 0,4.033 -27.947,0 z m 52.545,-47.642 c -1.844,0 -3.337,0.257 -4.478,0.774 -1.142,0.516 -2.032,1.242 -2.673,2.18 -0.641,0.938 -1.071,2.048 -1.289,3.33 -0.219,1.282 -0.328,2.673 -0.328,4.173 -2.658,0 -4.682,-0.453 -6.073,-1.36 -1.391,-0.906 -2.087,-2.469 -2.087,-4.688 0,-1.657 0.453,-3.064 1.36,-4.221 0.907,-1.156 2.149,-2.101 3.728,-2.837 1.579,-0.734 3.416,-1.273 5.51,-1.618 2.094,-0.343 4.33,-0.516 6.706,-0.516 2.938,0 5.501,0.29 7.69,0.868 2.188,0.58 4.016,1.524 5.486,2.836 1.469,1.313 2.57,3.025 3.306,5.135 0.734,2.11 1.101,4.697 1.101,7.76 l 0,24.899 c 0,1.345 0.111,2.456 0.329,3.33 0.218,0.875 0.563,1.578 1.032,2.109 0.469,0.532 1.086,0.908 1.852,1.126 0.766,0.218 1.681,0.328 2.743,0.328 l 0.282,0 0,4.033 -12.99,0 -1.5,-8.253 -0.797,0 c -1.001,1.344 -1.969,2.579 -2.908,3.704 -0.938,1.126 -1.969,2.095 -3.094,2.908 -1.125,0.813 -2.399,1.446 -3.822,1.899 -1.422,0.454 -3.135,0.68 -5.135,0.68 -2.125,0 -4.103,-0.305 -5.932,-0.914 -1.828,-0.609 -3.406,-1.547 -4.736,-2.814 -1.328,-1.266 -2.367,-2.86 -3.118,-4.783 -0.749,-1.922 -1.125,-4.197 -1.125,-6.823 0,-5.094 1.813,-8.877 5.438,-11.347 3.627,-2.469 9.113,-3.814 16.46,-4.033 l 7.972,-0.28 0,-5.769 c 0,-1.719 -0.094,-3.306 -0.281,-4.759 -0.188,-1.454 -0.595,-2.704 -1.219,-3.752 -0.626,-1.046 -1.524,-1.859 -2.697,-2.438 -1.172,-0.577 -2.742,-0.867 -4.713,-0.867 z m -11.629,33.714 c 0,3.001 0.633,5.246 1.9,6.729 1.266,1.485 3.227,2.227 5.884,2.227 1.938,0 3.696,-0.312 5.275,-0.938 1.579,-0.625 2.923,-1.516 4.032,-2.673 1.109,-1.156 1.962,-2.563 2.557,-4.22 0.594,-1.657 0.891,-3.5 0.891,-5.533 l 0,-7.784 -6.143,0.281 c -2.72,0.125 -4.994,0.461 -6.822,1.008 -1.829,0.547 -3.307,1.313 -4.432,2.298 -1.125,0.985 -1.931,2.196 -2.416,3.633 -0.484,1.441 -0.726,3.097 -0.726,4.972 z m 62.348,14.865 c -3.189,0 -6.127,-0.493 -8.814,-1.477 -2.69,-0.984 -5.003,-2.539 -6.941,-4.666 -1.939,-2.125 -3.446,-4.853 -4.525,-8.183 -1.078,-3.329 -1.617,-7.354 -1.617,-12.074 0,-5.127 0.539,-9.417 1.617,-12.872 1.079,-3.454 2.58,-6.228 4.502,-8.323 1.923,-2.094 4.189,-3.579 6.8,-4.455 2.609,-0.875 5.431,-1.313 8.464,-1.313 2,0 3.992,0.196 5.979,0.586 1.984,0.392 3.774,0.994 5.368,1.806 1.595,0.813 2.892,1.836 3.894,3.071 1,1.236 1.499,2.681 1.499,4.338 0,2.22 -0.72,3.783 -2.157,4.688 -1.438,0.908 -3.579,1.36 -6.423,1.36 0,-1.501 -0.126,-2.923 -0.376,-4.268 -0.25,-1.343 -0.68,-2.523 -1.289,-3.54 -0.609,-1.015 -1.438,-1.812 -2.485,-2.392 -1.048,-0.578 -2.384,-0.867 -4.009,-0.867 -1.845,0 -3.51,0.344 -4.994,1.031 -1.484,0.688 -2.76,1.876 -3.822,3.564 -1.062,1.688 -1.875,3.955 -2.438,6.799 -0.562,2.845 -0.845,6.409 -0.845,10.692 0,6.815 1.134,11.895 3.399,15.239 2.267,3.345 5.979,5.018 11.137,5.018 2.97,0 5.564,-0.625 7.785,-1.876 2.219,-1.25 3.875,-2.86 4.97,-4.83 0.469,0.375 0.86,0.876 1.173,1.501 0.312,0.625 0.469,1.375 0.469,2.25 0,1.095 -0.345,2.188 -1.032,3.282 -0.688,1.094 -1.711,2.08 -3.071,2.954 -1.359,0.876 -3.056,1.587 -5.088,2.133 -2.035,0.55 -4.41,0.824 -7.13,0.824 z m 47.81,-31.839 12.801,18.991 c 1.656,2.563 3.307,4.518 4.947,5.861 1.641,1.344 3.54,2.016 5.697,2.016 l 0.281,0 0,4.033 -1.359,0 c -2.783,0 -5.073,-0.086 -6.87,-0.258 -1.798,-0.172 -3.353,-0.579 -4.666,-1.219 -1.312,-0.641 -2.517,-1.578 -3.61,-2.813 -1.095,-1.234 -2.314,-2.915 -3.658,-5.041 l -9.612,-15.052 -7.08,5.252 0,8.675 c 0,1.406 0.21,2.54 0.633,3.4 0.422,0.86 0.992,1.508 1.711,1.946 0.72,0.438 1.556,0.727 2.509,0.868 0.953,0.141 1.962,0.211 3.024,0.211 l 0.282,0 0,4.033 -25.838,0 0,-4.033 0.751,0 c 1.094,0 2.117,-0.078 3.071,-0.235 0.953,-0.155 1.781,-0.476 2.485,-0.961 0.702,-0.483 1.266,-1.179 1.688,-2.087 0.422,-0.906 0.632,-2.109 0.632,-3.61 l 0,-51.486 c 0,-1.407 -0.21,-2.539 -0.632,-3.399 -0.423,-0.86 -0.993,-1.524 -1.713,-1.993 -0.719,-0.47 -1.555,-0.773 -2.508,-0.914 -0.953,-0.141 -1.963,-0.211 -3.024,-0.211 l -0.751,0 0,-4.033 17.679,0 0,37.044 c 0,0.875 -0.017,1.993 -0.047,3.353 -0.032,1.36 -0.079,2.696 -0.141,4.009 -0.063,1.501 -0.126,3.08 -0.188,4.736 l 12.003,-13.129 c 1.033,-1.156 1.884,-2.172 2.557,-3.048 0.672,-0.875 1.211,-1.642 1.617,-2.298 0.406,-0.656 0.688,-1.242 0.844,-1.758 0.156,-0.515 0.234,-1.008 0.234,-1.477 0,-0.812 -0.383,-1.336 -1.148,-1.571 -0.767,-0.234 -1.945,-0.352 -3.54,-0.352 l 0,-4.032 21.194,0 0,4.032 c -2.22,0 -4.399,0.783 -6.541,2.345 -2.142,1.563 -4.463,3.768 -6.963,6.611 l -6.751,7.594 z m 38.994,31.839 c -2.407,0 -4.588,-0.211 -6.541,-0.633 -1.955,-0.421 -3.619,-1.062 -4.994,-1.922 -1.376,-0.859 -2.439,-1.922 -3.189,-3.188 -0.75,-1.266 -1.125,-2.743 -1.125,-4.431 0,-1.282 0.211,-2.352 0.633,-3.212 0.422,-0.86 0.938,-1.54 1.548,-2.04 0.61,-0.5 1.267,-0.852 1.97,-1.056 0.703,-0.203 1.336,-0.304 1.898,-0.304 0,1.688 0.172,3.267 0.516,4.735 0.344,1.47 0.922,2.76 1.735,3.869 0.812,1.11 1.883,1.986 3.212,2.626 1.329,0.641 2.962,0.961 4.9,0.961 1.719,0 3.236,-0.21 4.549,-0.632 1.313,-0.422 2.415,-1.015 3.305,-1.782 0.892,-0.766 1.572,-1.688 2.041,-2.767 0.469,-1.078 0.703,-2.258 0.703,-3.541 0,-1.188 -0.182,-2.211 -0.539,-3.071 -0.36,-0.859 -0.984,-1.665 -1.876,-2.415 -0.892,-0.75 -2.103,-1.517 -3.634,-2.298 -1.533,-0.782 -3.455,-1.672 -5.768,-2.674 -2.471,-1.093 -4.619,-2.148 -6.448,-3.165 -1.828,-1.016 -3.337,-2.117 -4.524,-3.306 -1.188,-1.188 -2.08,-2.539 -2.674,-4.055 -0.594,-1.517 -0.891,-3.321 -0.891,-5.416 0,-2.188 0.43,-4.127 1.289,-5.815 0.859,-1.688 2.088,-3.103 3.682,-4.244 1.595,-1.141 3.501,-2.008 5.721,-2.603 2.219,-0.593 4.689,-0.89 7.41,-0.89 2.279,0 4.297,0.234 6.047,0.704 1.751,0.468 3.221,1.102 4.409,1.898 1.187,0.797 2.077,1.735 2.672,2.813 0.594,1.078 0.892,2.212 0.892,3.399 0,1.751 -0.604,3.15 -1.806,4.197 -1.204,1.047 -2.915,1.571 -5.134,1.571 0,-3.22 -0.665,-5.721 -1.994,-7.502 -1.329,-1.782 -3.416,-2.673 -6.26,-2.673 -1.625,0 -3.018,0.188 -4.173,0.563 -1.157,0.375 -2.104,0.908 -2.837,1.594 -0.735,0.688 -1.274,1.5 -1.618,2.438 -0.345,0.938 -0.516,1.97 -0.516,3.095 0,1.219 0.219,2.275 0.657,3.166 0.438,0.89 1.132,1.712 2.086,2.462 0.953,0.75 2.188,1.477 3.705,2.181 1.516,0.703 3.336,1.493 5.462,2.369 2.532,1.062 4.705,2.109 6.519,3.141 1.812,1.032 3.306,2.157 4.478,3.376 1.173,1.219 2.04,2.595 2.603,4.126 0.563,1.531 0.844,3.299 0.844,5.298 0,2.502 -0.453,4.689 -1.359,6.565 -0.907,1.875 -2.188,3.447 -3.846,4.712 -1.656,1.266 -3.649,2.212 -5.979,2.837 -2.329,0.627 -4.917,0.939 -7.761,0.939 z m 72.053,-26.775 c 0,4.627 -0.43,8.628 -1.289,12.004 -0.86,3.376 -2.118,6.159 -3.775,8.346 -1.656,2.189 -3.704,3.807 -6.143,4.853 -2.438,1.047 -5.236,1.571 -8.393,1.571 -1.846,0 -3.518,-0.204 -5.018,-0.61 -1.501,-0.405 -2.854,-0.984 -4.057,-1.735 -1.203,-0.75 -2.267,-1.641 -3.189,-2.673 -0.922,-1.031 -1.727,-2.172 -2.414,-3.423 l -0.375,0 c 0.062,1.658 0.125,3.205 0.188,4.642 0.031,0.595 0.054,1.212 0.07,1.853 0.016,0.641 0.031,1.243 0.047,1.805 0.016,0.562 0.031,1.07 0.047,1.524 0.016,0.453 0.023,0.805 0.023,1.056 l 0,9.19 c 0,1.407 0.211,2.54 0.633,3.4 0.422,0.86 0.992,1.516 1.711,1.969 0.72,0.453 1.557,0.75 2.51,0.892 0.953,0.141 1.961,0.21 3.024,0.21 l 0.281,0 0,4.034 -25.837,0 0,-4.033 0.75,0 c 1.094,0 2.117,-0.078 3.072,-0.234 0.953,-0.156 1.781,-0.478 2.484,-0.961 0.703,-0.485 1.266,-1.189 1.689,-2.11 0.421,-0.922 0.632,-2.134 0.632,-3.634 l 0,-52.988 c 0,-1.407 -0.211,-2.539 -0.632,-3.399 -0.424,-0.859 -0.994,-1.524 -1.713,-1.993 -0.72,-0.469 -1.556,-0.781 -2.509,-0.938 -0.954,-0.156 -1.962,-0.235 -3.024,-0.235 l -1.219,0 0,-4.032 16.786,0 0.985,8.675 0.375,0 c 0.719,-1.469 1.531,-2.798 2.438,-3.986 0.907,-1.188 1.953,-2.196 3.142,-3.024 1.188,-0.828 2.532,-1.47 4.033,-1.923 1.5,-0.453 3.188,-0.68 5.064,-0.68 3.156,0 5.954,0.524 8.393,1.571 2.439,1.047 4.486,2.657 6.143,4.829 1.657,2.174 2.915,4.932 3.775,8.277 0.862,3.345 1.292,7.315 1.292,11.91 z m -21.241,-20.444 c -2.501,0 -4.588,0.415 -6.261,1.243 -1.672,0.828 -3.009,2.086 -4.009,3.775 -1.001,1.688 -1.712,3.813 -2.134,6.376 -0.422,2.564 -0.633,5.58 -0.633,9.05 0,3.345 0.211,6.3 0.633,8.863 0.422,2.564 1.141,4.721 2.158,6.471 1.015,1.751 2.359,3.071 4.031,3.962 1.672,0.891 3.775,1.336 6.308,1.336 2.126,0 3.931,-0.445 5.415,-1.336 1.484,-0.892 2.703,-2.211 3.658,-3.962 0.953,-1.75 1.648,-3.916 2.087,-6.495 0.438,-2.579 0.655,-5.557 0.655,-8.933 0,-3.406 -0.218,-6.384 -0.655,-8.932 -0.438,-2.547 -1.134,-4.666 -2.087,-6.354 -0.955,-1.688 -2.188,-2.954 -3.704,-3.798 -1.516,-0.844 -3.336,-1.266 -5.462,-1.266 z m 47.434,-1.36 c -1.844,0 -3.338,0.257 -4.478,0.774 -1.142,0.516 -2.032,1.242 -2.673,2.18 -0.642,0.938 -1.072,2.048 -1.289,3.33 -0.219,1.282 -0.33,2.673 -0.33,4.173 -2.656,0 -4.681,-0.453 -6.072,-1.36 -1.391,-0.906 -2.086,-2.469 -2.086,-4.688 0,-1.657 0.453,-3.064 1.359,-4.221 0.907,-1.156 2.149,-2.101 3.729,-2.837 1.578,-0.734 3.415,-1.273 5.51,-1.618 2.094,-0.343 4.329,-0.516 6.705,-0.516 2.938,0 5.502,0.29 7.69,0.868 2.187,0.58 4.017,1.524 5.487,2.836 1.469,1.313 2.57,3.025 3.305,5.135 0.734,2.11 1.102,4.697 1.102,7.76 l 0,24.899 c 0,1.345 0.109,2.456 0.328,3.33 0.219,0.875 0.563,1.578 1.032,2.109 0.469,0.532 1.086,0.908 1.853,1.126 0.766,0.218 1.68,0.328 2.742,0.328 l 0.282,0 0,4.033 -12.989,0 -1.5,-8.253 -0.798,0 c -1.001,1.344 -1.969,2.579 -2.907,3.704 -0.938,1.126 -1.969,2.095 -3.095,2.908 -1.125,0.813 -2.399,1.446 -3.821,1.899 -1.423,0.454 -3.135,0.68 -5.135,0.68 -2.125,0 -4.104,-0.305 -5.932,-0.914 -1.828,-0.609 -3.407,-1.547 -4.736,-2.814 -1.329,-1.266 -2.368,-2.86 -3.119,-4.783 -0.749,-1.922 -1.124,-4.197 -1.124,-6.823 0,-5.094 1.812,-8.877 5.438,-11.347 3.627,-2.469 9.113,-3.814 16.46,-4.033 l 7.971,-0.28 0,-5.769 c 0,-1.719 -0.093,-3.306 -0.28,-4.759 -0.188,-1.454 -0.596,-2.704 -1.219,-3.752 -0.627,-1.046 -1.525,-1.859 -2.696,-2.438 -1.173,-0.577 -2.744,-0.867 -4.714,-0.867 z m -11.628,33.714 c 0,3.001 0.633,5.246 1.899,6.729 1.266,1.485 3.228,2.227 5.884,2.227 1.939,0 3.697,-0.312 5.275,-0.938 1.578,-0.625 2.924,-1.516 4.033,-2.673 1.109,-1.156 1.961,-2.563 2.556,-4.22 0.594,-1.657 0.891,-3.5 0.891,-5.533 l 0,-7.784 -6.144,0.281 c -2.719,0.125 -4.993,0.461 -6.82,1.008 -1.83,0.547 -3.307,1.313 -4.433,2.298 -1.126,0.985 -1.931,2.196 -2.415,3.633 -0.485,1.441 -0.726,3.097 -0.726,4.972 z m 62.347,14.865 c -3.189,0 -6.128,-0.493 -8.815,-1.477 -2.689,-0.984 -5.003,-2.539 -6.941,-4.666 -1.938,-2.125 -3.446,-4.853 -4.524,-8.183 -1.078,-3.329 -1.618,-7.354 -1.618,-12.074 0,-5.127 0.54,-9.417 1.618,-12.872 1.078,-3.454 2.579,-6.228 4.502,-8.323 1.922,-2.094 4.189,-3.579 6.799,-4.455 2.609,-0.875 5.431,-1.313 8.465,-1.313 2,0 3.992,0.196 5.979,0.586 1.983,0.392 3.774,0.994 5.368,1.806 1.595,0.813 2.892,1.836 3.893,3.071 1,1.236 1.5,2.681 1.5,4.338 0,2.22 -0.72,3.783 -2.157,4.688 -1.438,0.908 -3.58,1.36 -6.424,1.36 0,-1.501 -0.125,-2.923 -0.375,-4.268 -0.251,-1.343 -0.681,-2.523 -1.289,-3.54 -0.609,-1.015 -1.438,-1.812 -2.486,-2.392 -1.047,-0.578 -2.385,-0.867 -4.008,-0.867 -1.846,0 -3.51,0.344 -4.994,1.031 -1.485,0.688 -2.76,1.876 -3.822,3.564 -1.063,1.688 -1.875,3.955 -2.438,6.799 -0.562,2.845 -0.844,6.409 -0.844,10.692 0,6.815 1.132,11.895 3.398,15.239 2.267,3.345 5.979,5.018 11.137,5.018 2.969,0 5.564,-0.625 7.784,-1.876 2.22,-1.25 3.876,-2.86 4.97,-4.83 0.469,0.375 0.86,0.876 1.173,1.501 0.312,0.625 0.469,1.375 0.469,2.25 0,1.095 -0.345,2.188 -1.031,3.282 -0.688,1.094 -1.712,2.08 -3.071,2.954 -1.36,0.876 -3.057,1.587 -5.088,2.133 -2.036,0.55 -4.411,0.824 -7.13,0.824 z m 42.838,0 c -3.469,0 -6.588,-0.586 -9.354,-1.759 -2.768,-1.172 -5.104,-2.883 -7.01,-5.134 -1.908,-2.25 -3.369,-5.009 -4.385,-8.276 -1.017,-3.267 -1.524,-6.979 -1.524,-11.137 0,-8.972 1.845,-15.724 5.532,-20.257 3.689,-4.533 8.941,-6.799 15.757,-6.799 3.095,0 5.876,0.485 8.347,1.454 2.469,0.969 4.564,2.415 6.283,4.337 1.719,1.923 3.039,4.314 3.962,7.175 0.923,2.86 1.384,6.182 1.384,9.964 l 0,4.408 -31.98,0 c 0.062,3.501 0.415,6.51 1.055,9.026 0.641,2.517 1.563,4.588 2.768,6.213 1.203,1.625 2.68,2.821 4.432,3.587 1.75,0.766 3.766,1.149 6.049,1.149 1.656,0 3.195,-0.187 4.618,-0.563 1.422,-0.375 2.712,-0.875 3.868,-1.5 1.156,-0.624 2.182,-1.336 3.072,-2.133 0.89,-0.797 1.617,-1.633 2.18,-2.51 0.438,0.188 0.853,0.58 1.243,1.173 0.39,0.594 0.586,1.297 0.586,2.11 0,0.969 -0.345,2.009 -1.032,3.118 -0.688,1.11 -1.734,2.135 -3.141,3.072 -1.407,0.938 -3.166,1.719 -5.275,2.345 -2.113,0.625 -4.589,0.937 -7.435,0.937 z m -1.171,-48.204 c -3.563,0 -6.308,1.446 -8.229,4.337 -1.923,2.892 -3.057,7.12 -3.4,12.684 l 22.088,0 c 0,-2.531 -0.189,-4.845 -0.564,-6.939 -0.375,-2.094 -0.97,-3.892 -1.781,-5.393 -0.812,-1.5 -1.885,-2.657 -3.213,-3.469 -1.33,-0.813 -2.963,-1.22 -4.901,-1.22 z"
       id="path15"
       inkscape:connector-curvature="0"
       style="fill:#ea212e;stroke:none;stroke-width:0" />
  </symbol>
  <!-- end lettering -->
  <use
     x="65"
     y="-14"
     xlink:href="#lettering"
     id="use17"
     width="100%"
     height="100%" />
  <use
     x="-14"
     y="3"
     xlink:href="#H-nocirc"
     id="use19"
     width="100%"
     height="100%" />
</svg>
