<?xml version="1.0" encoding="utf-8"?>
<svg version="1.1" id="Layer_1" x="0px" y="0px" width="157.492px" height="232.489px" viewBox="7.045000076293945 6.974999904632568 125.60800170898438 199.70799255371094" enable-background="new 0 0 157.492 232.489" xmlns="http://www.w3.org/2000/svg">
  <g id="New_Symbol"/>
  <g id="g4" transform="matrix(1, 0, 0, 1, -10.026588, -4.80848)">
    <path fill="#26592C" d="M136.259,94.384c6.421-20.325,1.573-43.439-14.539-59.551c-23.05-23.05-60.42-23.05-83.465,0   C21.775,51.312,17.072,75.114,24.159,95.765c2.832,8.234,55.828,115.726,55.828,115.726S133.501,103.13,136.259,94.384z    M102.926,96.592L89.47,83.136l4.235-4.24l-2.246-2.239L80.084,88.037l2.234,2.24l4.384-4.384l13.472,13.461L79.987,119.53   l-13.466-13.456l2.299-2.299L52.772,87.728l-2.299,2.299L37.013,76.565l20.181-20.187L70.649,69.84l-4.384,4.384l2.763,2.758   l11.375-11.381l-2.746-2.752l-4.24,4.234L59.951,53.616l20.036-20.025l13.456,13.461l-2.293,2.299l16.047,16.042l2.299-2.294   l13.461,13.467L102.926,96.592z" id="path6" style="fill:#e21b23;fill-opacity:1"/>
  </g>
</svg>