<?xml version="1.0" encoding="UTF-8" standalone="no"?>
<!-- Created with Inkscape (http://www.inkscape.org/) -->

<svg
   xmlns:dc="http://purl.org/dc/elements/1.1/"
   xmlns:cc="http://creativecommons.org/ns#"
   xmlns:rdf="http://www.w3.org/1999/02/22-rdf-syntax-ns#"
   xmlns:svg="http://www.w3.org/2000/svg"
   xmlns="http://www.w3.org/2000/svg"
   xmlns:sodipodi="http://sodipodi.sourceforge.net/DTD/sodipodi-0.dtd"
   xmlns:inkscape="http://www.inkscape.org/namespaces/inkscape"
   width="210mm"
   height="297mm"
   viewBox="0 0 744.09448819 1052.3622047"
   id="svg2"
   version="1.1"
   inkscape:version="0.91 r13725"
   sodipodi:docname="phs.svg">
  <defs
     id="defs4" />
  <sodipodi:namedview
     id="base"
     pagecolor="#ffffff"
     bordercolor="#666666"
     borderopacity="1.0"
     inkscape:pageopacity="0.0"
     inkscape:pageshadow="2"
     inkscape:zoom="0.35"
     inkscape:cx="375"
     inkscape:cy="520"
     inkscape:document-units="px"
     inkscape:current-layer="layer1"
     showgrid="false"
     inkscape:window-width="1440"
     inkscape:window-height="771"
     inkscape:window-x="0"
     inkscape:window-y="1"
     inkscape:window-maximized="1" />
  <metadata
     id="metadata7">
    <rdf:RDF>
      <cc:Work
         rdf:about="">
        <dc:format>image/svg+xml</dc:format>
        <dc:type
           rdf:resource="http://purl.org/dc/dcmitype/StillImage" />
        <dc:title></dc:title>
      </cc:Work>
    </rdf:RDF>
  </metadata>
  <g
     inkscape:label="Layer 1"
     inkscape:groupmode="layer"
     id="layer1">
    <path
       inkscape:connector-curvature="0"
       id="path3415"
       d="m 254.41695,1041.7033 c -9.65061,-2.6507 -14.58732,-10.2598 -14.58732,-22.4839 0,-8.7201 1.92693,-13.8066 7.08397,-18.6994 4.78804,-4.54265 9.71275,-6.30284 17.58999,-6.28699 9.99308,0.0201 11.45286,0.59517 11.08573,4.367 l -0.30361,3.11939 -8,-0.3353 c -7.05958,-0.2959 -8.40062,-0.061 -11.40805,2 -6.12369,4.1961 -7.59237,7.1299 -7.58841,15.1586 0.004,8.5672 1.89739,12.4097 7.72888,15.6872 3.29882,1.854 5.11689,2.1433 11.59007,1.8442 7.6417,-0.353 7.67893,-0.3425 7.98117,2.2631 0.27216,2.3461 -0.16289,2.7352 -4.19282,3.75 -5.68444,1.4313 -10.79097,1.3159 -16.9796,-0.3839 z m 117.37346,0.1212 c -4.82086,-1.2853 -5.88312,-3.0215 -3.68651,-6.0256 1.19838,-1.6389 1.80224,-1.7332 4.67813,-0.7306 5.60986,1.9556 10.78827,1.4574 13.54913,-1.3034 1.35,-1.35 2.45455,-3.0499 2.45455,-3.7775 0,-2.8028 -3.46715,-6.034 -9.63688,-8.9812 -8.10135,-3.8698 -11.36312,-7.5765 -11.36312,-12.9132 0,-8.8374 5.63248,-13.87256 15.5,-13.85625 9.86412,0.0163 12.79332,1.69749 10.48208,6.01605 -0.88792,1.6591 -1.80013,1.8149 -7.50681,1.282 -5.41272,-0.5054 -6.82787,-0.3063 -8.48567,1.194 -2.55912,2.3159 -2.53828,5.684 0.0497,8.0261 1.12159,1.015 4.83409,3.2223 8.25,4.905 7.05832,3.477 10.71073,7.9977 10.71073,13.257 0,6.5376 -3.74841,11.1736 -10.61602,13.13 -4.97222,1.4164 -8.43343,1.3629 -14.37928,-0.2224 z m 190.03188,0.088 c -5.63579,-1.3473 -12.09231,-7.5709 -13.80674,-13.3088 -1.83689,-6.1477 -1.51521,-16.1743 0.67001,-20.884 2.29362,-4.9434 7.40217,-9.89901 12.31803,-11.94936 5.13512,-2.14179 19.06177,-2.12817 21.21069,0.0207 1.85532,1.85531 1.87298,1.9966 0.5571,4.45536 -0.88941,1.6619 -1.80014,1.8219 -7.39489,1.2995 -7.97547,-0.7448 -10.66368,-0.079 -14.97757,3.7084 -6.28616,5.5194 -7.29948,18.6194 -1.93353,24.9965 4.27649,5.0823 7.72301,6.3027 16.02635,5.6747 6.53144,-0.494 7.41593,-0.3465 8.34606,1.3914 1.43368,2.6789 0.68299,3.4802 -4.47791,4.7797 -5.2914,1.3324 -10.43312,1.2751 -16.5376,-0.1842 z m -454.32252,-0.3124 c -0.39273,-0.3927 -0.71406,-10.9805 -0.71406,-23.5283 l 0,-22.81434 2.51299,-0.63072 c 4.30096,-1.07947 5.38278,0.90099 5.69941,10.43386 l 0.2876,8.6588 9.5,0 9.5,0 0.2876,-8.6588 c 0.31705,-9.54541 1.39626,-11.51388 5.71779,-10.42924 l 2.53136,0.63533 -0.26838,23.22641 -0.26837,23.2263 -3.5,0 -3.5,0 -0.28498,-10.25 -0.28499,-10.25 -9.93003,0 -9.93003,0 -0.28498,10.25 -0.28499,10.25 -3.03594,0.2974 c -1.66976,0.1636 -3.35726,-0.024 -3.75,-0.4167 z m 66.09828,0.098 c -0.74566,-0.7457 13.61428,-44.08324 15.26679,-46.07438 1.51837,-1.82953 6.37869,-1.80399 8.22591,0.0432 1.43347,1.43347 15.69496,42.46458 15.69496,45.15528 0,1.7854 -6.5483,1.9118 -7.69098,0.1484 -0.44496,-0.6866 -1.71087,-3.7241 -2.81313,-6.75 l -2.00411,-5.5015 -7.41075,0 -7.41075,0 -2.16424,6.5 c -2.06465,6.2009 -2.3233,6.5137 -5.62088,6.7976 -1.90115,0.1637 -3.73392,0.02 -4.07282,-0.3186 z m 24.18766,-21.2845 c 0,-1.8074 -4.23671,-13.1942 -4.90918,-13.1942 -0.39907,0 -1.54064,2.5875 -2.53684,5.75 -0.99619,3.1625 -2.02652,6.3125 -2.28961,7 -0.34413,0.8993 0.9546,1.25 4.62864,1.25 2.80885,0 5.10699,-0.3626 5.10699,-0.8058 z m 109.71406,21.1865 c -0.39273,-0.3927 -0.71406,-10.7089 -0.71406,-22.9249 0,-24.1736 0.27019,-25.35779 5.48701,-24.04846 2.43191,0.61037 2.51299,0.89897 2.51299,8.94496 0,4.5729 0.27258,8.5869 0.60573,8.9201 0.33315,0.3331 4.0623,-3.5294 8.287,-8.5834 6.95882,-8.32477 8.00569,-9.18904 11.13058,-9.18904 2.27524,0 3.54437,0.51057 3.72861,1.5 0.15363,0.825 -2.87771,5.19894 -6.7363,9.71974 -3.85859,4.5209 -7.01562,8.7757 -7.01562,9.4552 0,0.6795 3.6,6.5049 8,12.9453 4.4,6.4404 8,12.2239 8,12.8523 0,0.7257 -1.55051,1.0303 -4.25,0.835 -4.10937,-0.2973 -4.44243,-0.5888 -10.06523,-8.8075 -3.19837,-4.675 -6.21184,-9.175 -6.69659,-10 -0.68301,-1.1624 -1.28722,-1.2515 -2.68477,-0.396 -1.44967,0.8875 -1.90149,2.849 -2.30341,10 l -0.5,8.896 -3.03594,0.2974 c -1.66977,0.1636 -3.35727,-0.024 -3.75,-0.4167 z m 121,0 c -0.39273,-0.3927 -0.71406,-10.7482 -0.71406,-23.0122 0,-25.93424 -0.71293,-24.38229 11.18426,-24.34658 13.36677,0.0401 18.81574,4.48591 18.81574,15.35168 0,4.4392 -0.49257,6.0583 -2.60786,8.5722 -3.55396,4.2236 -5.87891,5.3015 -12.89214,5.9766 l -6,0.5776 -0.5,8.5 -0.5,8.5 -3.03594,0.2974 c -1.66977,0.1636 -3.35727,-0.024 -3.75,-0.4167 z m 19.03594,-26.6737 c 1.56852,-1.4331 2.25,-3.1924 2.25,-5.8088 0,-5.0004 -3.53498,-7.8982 -9.63486,-7.8982 l -4.36514,0 0,7.9266 c 0,6.7491 0.25998,7.9788 1.75,8.2771 3.31363,0.6633 7.75491,-0.4455 10,-2.4967 z m 33.25,25.4705 c 0,-2.4409 13.81176,-43.23218 15.21228,-44.92754 0.56793,-0.6875 2.2415,-1.25 3.71904,-1.25 1.47753,0 3.37735,0.5625 4.22183,1.25 1.58782,1.29267 15.85247,41.84894 15.84888,45.06044 -0.002,1.4802 -0.68591,1.7537 -3.75203,1.5 -3.58322,-0.2966 -3.84014,-0.5651 -5.77673,-6.0371 -1.1147,-3.1497 -2.50931,-6.2093 -3.09913,-6.7992 -0.61836,-0.6183 -3.95961,-0.9457 -7.89177,-0.7732 l -6.81936,0.2991 -2.16061,6.5 c -2.09558,6.3044 -2.27106,6.5093 -5.8315,6.8104 -3.07493,0.2599 -3.6709,-0.01 -3.6709,-1.6329 z m 24,-19.9833 c 0,-2.2541 -4.29968,-13.1271 -5.01598,-12.6844 -0.45711,0.2825 -1.60605,2.8709 -2.55322,5.7519 -0.94716,2.881 -1.92971,5.8008 -2.18345,6.4883 -0.33106,0.897 0.98069,1.25 4.64566,1.25 2.80885,0 5.10699,-0.3626 5.10699,-0.8058 z m 109.66667,21.1391 c -1.26913,-1.2691 -0.76548,-44.83453 0.53333,-46.13334 1.39826,-1.39826 22.50426,-1.67376 24.63749,-0.3216 0.73562,0.46628 1.18562,1.92189 1,3.23469 -0.31492,2.22725 -0.80562,2.40395 -7.33749,2.64125 -11.70855,0.4254 -11.64613,0.3866 -11.29897,7.027 l 0.29897,5.7187 8.5,0.5 8.5,0.5 0,3 0,3 -8.5,0.5 -8.5,0.5 -0.30184,6.4089 c -0.20962,4.4507 0.0959,6.6613 1,7.2347 0.71601,0.4542 5.23934,0.8327 10.05184,0.8411 l 8.75,0.015 0,3 0,3 -13.33333,0 c -7.33334,0 -13.63334,-0.3 -14,-0.6667 z M 189.41564,980.63964 c -13.17694,-4.19605 -20.23748,-13.935 -22.10096,-30.48494 -0.77071,-6.84477 0.86613,-17.65845 3.65378,-24.13852 5.45918,-12.6902 21.97849,-19.85027 38.77171,-16.80508 13.48688,2.44564 21.54676,9.26339 25.21041,21.32516 2.81333,9.26226 2.29337,25.58128 -1.06044,33.28192 -2.7628,6.34366 -9.05123,12.60908 -15.60443,15.54735 -6.51758,2.92229 -21.60348,3.58807 -28.87007,1.27411 z m 20.26409,-18.98456 c 3.71429,-3.12536 5.09307,-7.71386 5.1004,-16.97383 0.004,-5.31912 -0.54396,-8.12706 -2.24442,-11.4966 -2.72679,-5.40326 -5.83513,-7.18763 -11.54058,-6.62496 -8.11379,0.80019 -11.20942,6.09351 -11.20942,19.16739 0,13.39102 3.35841,18.27354 12.67327,18.4246 3.0858,0.05 4.96739,-0.60052 7.22075,-2.4966 z m 391.6475,19.09844 c -6.70034,-1.79837 -8.54152,-4.29088 -8.54152,-11.56316 0,-9.41563 1.1546,-10.47566 8.20269,-7.53078 5.76411,2.4084 15.96908,3.82517 19.06748,2.64716 3.1519,-1.19835 3.58632,-4.01086 0.97983,-6.34363 -0.9625,-0.86142 -5.30437,-3.24803 -9.64859,-5.30358 -12.73403,-6.02532 -17.61705,-12.39941 -17.57387,-22.94017 0.0194,-4.74406 2.76483,-11.13237 6.103,-14.20115 1.3169,-1.21064 4.60322,-3.17824 7.30293,-4.37244 8.63044,-3.81766 28.34483,-2.46952 34.98963,2.39271 1.88839,1.3818 1.88113,1.51943 -0.40209,7.6247 -3.35103,8.96056 -3.87343,9.30815 -10.49288,6.9816 -9.5334,-3.35072 -17.67986,-2.09036 -15.93186,2.46485 0.34692,0.90408 4.06719,3.28309 8.26725,5.2867 16.01356,7.63915 20.33648,12.59692 20.33648,23.32303 0,10.16165 -6.43019,18.48524 -16.6315,21.52872 -6.0369,1.80107 -19.32651,1.80384 -26.02698,0.005 z M 104.7821,979.21261 c -1.28465,-2.4004 -0.96289,-67.36497 0.34007,-68.66115 1.41515,-1.40778 30.63784,-0.98495 35.80726,0.51811 9.91884,2.88399 15.79453,10.8746 15.83432,21.53377 0.0315,8.42573 -1.79171,13.46906 -6.61534,18.2998 -4.70335,4.71027 -11.66475,7.31622 -19.5442,7.31622 l -4.8185,0 0,9.56574 c 0,13.34191 -0.0756,13.43426 -11,13.43426 -7.91619,0 -9.05152,-0.22775 -10.00361,-2.00675 z m 29.00361,-40.99325 c 4.27211,-4.27211 1.425,-11 -4.65499,-11 l -3.34501,0 0,6.5 0,6.5 3,0 c 1.66667,0 3.88889,-0.88889 5,-2 z m 130.03518,41.06574 c -0.6346,-1.18576 -1.03518,-11.63389 -1.03518,-27 l 0,-25.06574 -7.46482,0 c -6.60406,0 -7.59687,-0.24675 -8.61007,-2.13993 -1.21184,-2.26435 -0.85866,-13.25852 0.46867,-14.58902 1.28208,-1.28514 49.25397,-1.52994 51.62048,-0.26342 1.85872,0.99476 2.03838,1.88452 1.77678,8.79952 l -0.29104,7.69285 -7.75,0.29206 -7.75,0.29207 0,25.02368 c 0,15.3371 -0.40072,25.77242 -1.03518,26.95793 -0.90481,1.69065 -2.15981,1.93426 -9.96482,1.93426 -7.80501,0 -9.06001,-0.24361 -9.96482,-1.93426 z m 61.45172,0.72068 c -0.26306,-0.70753 -0.59272,-12.76142 -0.73259,-26.78642 l -0.25431,-25.5 -8,-0.5 -8,-0.5 -0.29104,-7.69285 c -0.2616,-6.915 -0.0819,-7.80476 1.77678,-8.79952 1.39637,-0.74731 10.02685,-1.0094 26.57878,-0.80715 20.47268,0.25017 24.66697,0.54665 25.4579,1.79952 1.36888,2.16834 1.20042,13.37716 -0.22242,14.8 -0.71366,0.71366 -4.15193,1.2 -8.48367,1.2 l -7.28366,0 -0.26634,26.75 -0.26633,26.75 -9.76741,0.28642 c -7.25817,0.21284 -9.89028,-0.0441 -10.24569,-1 z m 49.52027,-0.77302 c -1.29112,-2.41248 -0.98492,-67.37076 0.32375,-68.6813 1.31442,-1.31629 38.22391,-1.64072 40.62245,-0.35706 1.75254,0.93793 2.04663,2.06741 2.04663,7.86014 0,3.92819 -0.50318,7.268 -1.2,7.96482 -0.77007,0.77007 -4.71111,1.2 -11,1.2 l -9.8,0 0,4 0,4 8.06574,0 c 11.38844,0 11.93426,0.43121 11.93426,9.42819 0,8.72752 0.21038,8.57181 -11.58179,8.57181 l -8.41821,0 0,5.46617 0,5.46617 10.75,0.28383 10.75,0.28383 0,8 0,8 -20.70403,0.27015 c -19.91472,0.25985 -20.74539,0.19287 -21.7888,-1.75675 z m 57.6595,1.31993 c -0.36667,-0.36666 -0.66667,-16.10083 -0.66667,-34.96481 0,-34.28043 0.001,-34.29876 2.19291,-35.47176 2.69429,-1.44194 29.2728,-0.59262 35.30709,1.12825 9.79545,2.79348 15.5,10.08898 15.5,19.82283 0,6.55118 -1.78199,10.86749 -6.38843,15.47392 -1.98636,1.98637 -3.61157,4.08846 -3.61157,4.67132 0,0.58286 4.06763,7.13731 9.03917,14.56544 4.97154,7.42814 8.76999,13.94126 8.44098,14.47359 -0.329,0.53234 -5.22688,0.96789 -10.88418,0.96789 -12.07291,0 -10.70988,0.99364 -19.54747,-14.25 -3.42781,-5.9125 -6.866,-10.75 -7.64044,-10.75 -1.12477,0 -1.40806,2.19664 -1.40806,10.91821 0,6.00502 -0.27314,11.63002 -0.60699,12.5 -0.4928,1.28423 -2.3426,1.58179 -9.83333,1.58179 -5.07449,0 -9.52635,-0.3 -9.89301,-0.66667 z m 29.33333,-43.33333 c 4.34829,-4.34829 1.02244,-11 -5.5,-11 l -3.5,0 0,6.5 0,6.5 3.5,0 c 2.16667,0 4.2619,-0.7619 5.5,-2 z m 39.99639,41.99325 c -1.28272,-2.39678 -0.96391,-67.36222 0.33694,-68.66115 0.45834,-0.45765 4.86225,-0.8321 9.78648,-0.8321 6.87025,0 9.17373,0.34896 9.90135,1.5 1.03401,1.63572 1.38265,65.78411 0.37185,68.41821 -0.49366,1.28645 -2.35419,1.58179 -9.96482,1.58179 -8.34486,0 -9.47408,-0.21723 -10.4318,-2.00675 z m 38.01078,0.0202 c -1.29112,-2.41248 -0.98492,-67.37076 0.32375,-68.6813 1.31442,-1.31629 38.22391,-1.64072 40.62245,-0.35706 1.75254,0.93793 2.04663,2.06741 2.04663,7.86014 0,3.92819 -0.50318,7.268 -1.2,7.96482 -0.77007,0.77007 -4.71111,1.2 -11,1.2 l -9.8,0 0,4 0,4 8.06574,0 c 11.38844,-5e-5 11.93426,0.43116 11.93426,9.42814 0,8.72752 0.21038,8.57181 -11.58179,8.57181 l -8.41821,0 0,5.46617 0,5.46617 10.75,0.28383 10.75,0.28383 0,8 0,8 -20.70403,0.27015 c -19.91472,0.25985 -20.74539,0.19287 -21.7888,-1.75675 z M 262.28571,890.60273 c -76.63841,-1.93628 -130.71025,-4.98936 -150.27705,-8.48515 -9.93472,-1.77492 -10.14897,-2.11353 -12.305346,-19.44752 -6.316799,-50.77753 -8.385037,-91.00553 -8.403476,-163.4507 -0.01896,-74.50079 2.128175,-106.70218 9.968412,-149.5 9.19631,-50.20021 25.77394,-95.58761 53.05621,-145.26097 23.78584,-43.30734 45.35007,-75.38721 97.05064,-144.37673 38.41132,-51.25628 42.26768,-57.49368 44.80923,-72.47599 3.71059,-21.87368 6.22432,-81.01769 5.21195,-122.62845 -0.60918,-25.038849 -0.57035,-25.798085 1.4215,-27.789934 6.2549,-6.254894 32.76516,-9.943229 71.46793,-9.943229 41.44359,0 70.21258,4.571994 72.9041,11.585986 0.35792,0.932733 0.36346,12.989402 0.0123,26.792597 -1.0216,40.15639 1.50923,100.39247 5.10473,121.49713 2.64176,15.50642 6.46064,21.67881 46.3865,74.97371 59.27286,79.12016 86.9482,122.05432 110.62997,171.62588 37.79103,79.10559 49.51678,147.11064 48.10649,279 -0.60549,56.62484 -1.52828,79.01228 -4.65777,113 -3.62333,39.35112 -5.42083,51.62368 -7.84905,53.58994 -4.95632,4.01338 -37.58137,6.99289 -109.63726,10.0127 -22.78715,0.95499 -244.68922,1.99601 -273,1.28073 z m 142.12226,-170.12577 29.87369,-29.2424 -19.48836,-19.5076 c -10.71859,-10.72918 -19.95806,-19.5076 -20.53213,-19.5076 -0.57408,0 -3.48804,2.475 -6.47546,5.5 -2.98742,3.025 -5.96294,5.5 -6.61225,5.5 -0.64931,0 -2.62725,-1.64768 -4.39542,-3.66152 l -3.21486,-3.66152 17.1142,-17.0318 17.1142,-17.03181 3.49706,3.38949 c 1.92339,1.86422 3.49707,3.88063 3.49707,4.48092 0,0.60028 -2.25,3.30759 -5,6.01624 -2.75,2.70865 -5,5.6124 -5,6.45279 0,1.6718 36.84826,39.04721 38.49649,39.04721 0.55892,0 14.25605,-13.24553 30.43805,-29.43451 l 29.42183,-29.43452 -15.09168,-15.81548 c -21.33566,-22.35893 -23.06447,-23.95752 -24.65051,-22.79392 -0.73351,0.53814 -2.55635,1.84035 -4.05078,2.8938 l -2.71713,1.91538 -23.92313,-23.90756 c -13.15773,-13.14916 -23.92314,-24.56146 -23.92314,-25.36066 0,-0.7992 1.21047,-2.71655 2.68994,-4.26078 l 2.68993,-2.80769 -18.93993,-19.24703 c -10.41697,-10.58587 -19.61494,-19.37147 -20.43994,-19.52356 -0.85132,-0.15695 -14.25537,12.49306 -30.99524,29.25159 l -29.49524,29.52813 19.673,19.673 19.673,19.673 6.12924,-5.67459 c 3.37108,-3.12103 6.50123,-5.6746 6.95588,-5.6746 0.45465,0 2.50432,1.85699 4.55481,4.12665 l 3.72818,4.12665 -15.86181,15.93799 c -8.724,8.76589 -16.5829,16.33919 -17.46423,16.82954 -1.18077,0.65697 -2.56218,0.0124 -5.25,-2.44951 -2.00617,-1.83758 -3.64759,-3.87628 -3.64759,-4.53043 0,-0.65415 2.475,-3.78414 5.5,-6.95554 3.025,-3.1714 5.5,-6.17982 5.5,-6.68538 0,-0.50556 -8.69871,-9.60934 -19.33047,-20.23061 l -19.33047,-19.3114 -29.66953,29.17703 c -16.31824,16.04736 -29.66953,29.69615 -29.66953,30.33063 0,0.63449 8.73796,9.88296 19.41769,20.55215 l 19.41769,19.39854 3.24903,-2.73388 3.24904,-2.73389 24.33327,24.31808 c 13.38331,13.37494 24.33328,24.74689 24.33328,25.27101 0,0.52411 -1.22093,2.22731 -2.71318,3.78488 l -2.71318,2.83195 19.45597,19.47518 c 10.70078,10.71134 19.74013,19.36159 20.08746,19.22276 0.34732,-0.13882 14.07465,-13.41148 30.50519,-29.4948 z"
       style="fill:#df9ba0" />
    <path
       inkscape:connector-curvature="0"
       id="path3413"
       d="m 257.11211,1042.2222 c -11.47221,-2.398 -17.28248,-10.1314 -17.28248,-23.0028 0,-10.9366 4.41491,-18.359 13.45608,-22.62262 8.28299,-3.90607 22.5,-2.97382 22.5,1.47538 0,3.17824 -2.10537,4.13564 -6.7831,3.08464 -4.79653,-1.0778 -10.89606,-0.033 -14.82093,2.5388 -3.63708,2.3831 -6.34794,8.992 -6.37401,15.5394 -0.0488,12.2487 8.70315,19.2316 21.22804,16.9373 4.6161,-0.8455 6.75,0.1222 6.75,3.0611 0,2.7734 -11.15928,4.5594 -18.6736,2.9888 z m 115.6736,-0.2153 c -4.8726,-1.081 -6.14069,-2.2197 -5.23042,-4.6968 0.95887,-2.6094 2.08443,-2.8356 7.33346,-1.474 6.54998,1.699 11.90263,0.1594 13.30281,-3.8264 1.62155,-4.616 -0.49871,-7.3328 -8.79508,-11.2698 -10.83424,-5.1413 -13.86528,-10.9673 -9.97316,-19.1693 2.11973,-4.46699 7.71361,-7.35124 14.25745,-7.35124 8.54451,0 11.96005,2.52556 9.23294,6.82714 -0.672,1.06 -1.68857,1.099 -5.04978,0.1939 -7.94003,-2.13801 -13.56204,1.7285 -11.58241,7.9658 0.43992,1.386 3.26185,3.3583 8.0714,5.6412 8.98007,4.2626 11.81741,7.7132 11.81741,14.372 0,6.5953 -3.02416,10.5185 -9.61749,12.4765 -5.74251,1.7054 -7.32125,1.741 -13.76713,0.311 z m 191.18424,0.191 c -9.99827,-2.0773 -16.0449,-9.323 -16.91411,-20.2683 -1.29919,-16.3596 8.67458,-27.67561 24.41477,-27.70047 7.53359,-0.0119 11.3151,1.27244 11.3151,3.84303 0,3.11874 -2.1979,4.24064 -6.07784,3.10244 -4.35158,-1.27656 -10.46992,-0.323 -14.79024,2.305 -6.8604,4.1732 -9.22827,16.1801 -4.88192,24.755 3.69913,7.298 8.71404,8.9984 22.75,7.7136 2.02707,-0.1855 2.55763,0.2683 2.80464,2.3991 0.23683,2.0429 -0.20835,2.7539 -2,3.1941 -4.93979,1.2136 -12.50131,1.5123 -16.6204,0.6565 z m -456.73575,-1.2522 c -0.26882,-0.7005 -0.36719,-11.163 -0.21862,-23.25 l 0.27013,-21.97634 3.25,-0.31336 3.25,-0.31336 0.0153,8.31336 c 0.008,4.5723 0.38353,8.8937 0.83357,9.6031 0.59604,0.9395 3.37552,1.211 10.23469,1 l 9.41643,-0.2897 0.25433,-7 c 0.39244,-10.80103 0.7432,-11.67684 4.52998,-11.31084 l 3.21569,0.3108 0,23.00004 0,23 -2.89149,0.3301 c -1.64233,0.1875 -3.25577,-0.2446 -3.73469,-1 -0.46376,-0.7316 -0.85008,-5.5083 -0.85851,-10.6151 l -0.0153,-9.285 -10.25,0.285 -10.25,0.285 -0.28498,10.25 -0.28498,10.25 -2.99641,0 c -1.64802,0 -3.21633,-0.5731 -3.48515,-1.2737 z m 66.55151,-0.1346 c 0,-1.1899 12.36325,-38.5591 14.5046,-43.84174 0.84757,-2.09092 7.69561,-2.4621 9.22456,-0.5 1.01378,1.301 15.27084,43.23284 15.27084,44.91354 0,0.5265 -1.6875,0.8176 -3.75,0.6469 -3.6619,-0.3031 -3.80597,-0.4699 -6.13217,-7.1001 l -2.38217,-6.7897 -7.61783,0.2897 -7.61783,0.2897 -2.36828,6.75 c -2.29312,6.5358 -2.47561,6.75 -5.75,6.75 -2.24149,0 -3.38172,-0.4749 -3.38172,-1.4083 z m 23.62474,-20.0562 c 0.6269,-1.6336 -3.37571,-14.5355 -4.50944,-14.5355 -1.07419,0 -5.33164,13.8409 -4.61441,15.0014 0.99045,1.6026 8.47679,1.2203 9.12385,-0.4659 z m 110.00291,19.9366 c -0.94708,-2.4681 -0.72312,-42.77324 0.24617,-44.30222 0.47892,-0.75546 2.09236,-1.18747 3.73469,-1 l 2.89149,0.33008 0.28893,8.75004 c 0.15892,4.8125 0.64719,8.75 1.08505,8.75 0.43786,0 4.06991,-4.05 8.07122,-9 6.90651,-8.54404 7.4722,-9.00004 11.16496,-9.00004 2.13941,0 3.88984,0.48915 3.88984,1.08701 0,0.59785 -2.96286,4.53533 -6.58414,8.75003 -3.62127,4.2146 -6.96555,8.3635 -7.43172,9.2196 -0.61532,1.1301 1.46309,4.9465 7.58413,13.9261 4.63745,6.8031 8.43173,12.7401 8.43173,13.1933 0,0.4532 -1.78994,0.824 -3.97763,0.824 -3.93702,0 -4.04958,-0.1072 -11.02237,-10.5 -3.8746,-5.775 -7.45811,-10.5 -7.96335,-10.5 -1.83929,0 -2.54657,2.6785 -3.03665,11.5 l -0.5,9 -3.12235,0.3038 c -2.16641,0.2109 -3.31452,-0.1969 -3.75,-1.3317 z m 121.03902,0.8612 c -1.16423,-1.1642 -0.77955,-45.14554 0.40124,-45.87531 2.2012,-1.36042 12.87559,-1.67106 17.69482,-0.51495 7.31256,1.75426 10.50859,5.48226 10.97853,12.80586 0.29075,4.5312 -0.0713,6.4527 -1.70678,9.0592 -2.58895,4.126 -9.01615,7.141 -15.28448,7.1699 l -4.75,0.022 0,7.4182 c 0,4.08 -0.27314,8.13 -0.60699,9 -0.603,1.5714 -5.41536,2.2261 -6.72634,0.9151 z m 16.73012,-24.7258 c 3.70478,-1.5479 5.70713,-5.6131 4.88449,-9.9165 -0.63061,-3.2988 -2.26727,-4.673 -6.77694,-5.6901 -6.76913,-1.52665 -7.50434,-0.7479 -7.50434,7.949 0,4.2442 0.3,8.0168 0.66667,8.3834 1.09725,1.0973 5.1792,0.7579 8.73012,-0.7258 z m 35.60321,24.055 c 0,-1.121 12.34065,-38.451 14.51672,-43.91254 0.83316,-2.0911 7.69193,-2.46406 9.19501,-0.5 1.14653,1.49815 15.31504,42.70924 15.29927,44.50004 -0.007,0.7619 -1.38981,1.25 -3.54238,1.25 -1.94227,0 -3.7268,-0.5625 -3.96564,-1.25 -0.23883,-0.6875 -1.38886,-3.8557 -2.55561,-7.0405 l -2.12137,-5.7905 -7.663,0.2905 -7.663,0.2905 -2.36828,6.75 c -2.29312,6.5358 -2.47561,6.75 -5.75,6.75 -2.15676,0 -3.38172,-0.4845 -3.38172,-1.3375 z m 23.62474,-20.127 c 0.72044,-1.8774 -3.51773,-14.7197 -4.63074,-14.0318 -1.31485,0.8126 -5.21452,13.3305 -4.50863,14.4726 1.00195,1.6212 8.48664,1.2602 9.13937,-0.4408 z m 109.98225,19.8827 c -0.91519,-2.3849 -0.69869,-42.72546 0.23721,-44.20039 0.60687,-0.95639 3.96949,-1.21047 13.23469,-1 l 12.42111,0.28215 0,2.5 c 0,2.44444 -0.2,2.51114 -9,3.00004 l -9,0.5 0,6 0,6 7.89661,0.5 c 5.90034,0.3736 8.16088,0.9212 8.94201,2.1661 2.09606,3.3408 -0.83988,4.8339 -9.50487,4.8339 l -7.92137,0 0.29381,7.25 0.29381,7.25 9.5,0.5 c 9.47975,0.4989 9.50067,0.5059 9.81642,3.25 l 0.31642,2.75 -13.45943,0 c -11.35075,0 -13.55453,-0.2478 -14.06642,-1.5818 z M 190.78571,979.67913 c -9.79361,-2.73765 -15.86381,-8.12672 -19.6665,-17.45977 -1.44021,-3.53474 -1.8335,-7.18127 -1.8335,-17 0,-11.37285 0.23385,-12.99595 2.59339,-18 5.44971,-11.55763 13.12161,-16.15888 28.01955,-16.80481 12.72251,-0.55162 18.89875,1.21162 25.71712,7.34193 7.54924,6.78742 9.57532,12.67603 9.62832,27.98391 0.0402,11.61456 -0.0698,12.24735 -3.25352,18.7144 -5.5126,11.19769 -12.91483,15.56377 -27.70486,16.34124 -5.33171,0.28027 -9.83445,-0.0923 -13.5,-1.1169 z m 19.85652,-16.9925 c 3.95712,-3.32969 5.39498,-8.03213 5.3536,-17.50868 -0.0586,-13.41831 -4.62157,-19.96399 -13.91046,-19.95485 -5.0807,0.005 -10.05361,3.20782 -12.06135,7.76816 -2.31461,5.25733 -2.30173,20.57212 0.0209,24.8898 2.82832,5.25768 6.31542,7.3383 12.29889,7.3383 4.20025,0 5.90777,-0.52115 8.29839,-2.53273 z m 395.14348,17.92377 c -1.375,-0.2538 -4.4125,-1.15783 -6.75,-2.00896 l -4.25,-1.5475 0,-7.91729 c 0,-4.35451 0.3375,-7.91706 0.75,-7.91679 0.4125,2.8e-4 3.14421,0.9105 6.07046,2.0227 7.82215,2.97303 16.4668,3.67383 19.64341,1.59243 2.97331,-1.94819 3.3392,-5.5994 0.78613,-7.84468 -0.9625,-0.84646 -5.125,-3.09144 -9.25,-4.98885 -11.93814,-5.49128 -16.01674,-9.7844 -17.44014,-18.35741 -1.62877,-9.80998 4.2105,-19.09114 13.8036,-21.93999 6.46079,-1.91864 17.64051,-1.89515 25.11914,0.0528 8.57906,2.23457 8.81286,2.57696 6.34824,9.29706 -1.14281,3.116 -2.45786,6.07857 -2.92235,6.58347 -0.50725,0.5514 -3.15359,0.22255 -6.6265,-0.82344 -10.54029,-3.17458 -19.7805,-0.87539 -16.70029,4.15543 0.5893,0.9625 5.47584,4.08229 10.85897,6.93287 14.67033,7.76849 17.55933,11.27576 17.55933,21.31711 0,13.3226 -9.23839,20.99805 -25.95438,21.56345 -4.70009,0.15898 -9.67062,0.0814 -11.04562,-0.17241 z m -499.29618,-1.02056 c -0.3871,-0.3871 -0.70382,-15.92881 -0.70382,-34.53715 l 0,-33.83333 15.82186,0 c 17.42481,0 22.61297,1.06611 27.57391,5.66616 8.92278,8.27367 8.71115,25.48732 -0.41471,33.73199 -4.39201,3.96792 -12.02968,6.60185 -19.14351,6.60185 -5.69146,0 -5.71446,0.051 -6.08775,13.5 l -0.2498,9 -8.04618,0.28715 c -4.4254,0.15793 -8.3629,-0.0296 -8.75,-0.41667 z m 27.3731,-40.29356 c 5.84384,-5.84383 2.65944,-13.46601 -5.38174,-12.88174 l -4.19518,0.30482 -0.29998,6.33731 c -0.18042,3.8114 0.16732,6.90038 0.87244,7.75 1.90832,2.29938 5.85705,1.63703 9.00446,-1.51039 z m 131.41162,39.71378 c -0.26396,-0.70989 -0.59436,-12.7657 -0.73423,-26.7907 l -0.25431,-25.5 -8,-0.5 -8,-0.5 -0.29415,-7.26697 -0.29415,-7.26697 25.79415,0.26697 25.79415,0.26697 0,7 0,7 -8,0.5 -8,0.5 -0.5,26.5 -0.5,26.5 -8.26577,0.2907 c -6.05219,0.21285 -8.39429,-0.055 -8.74569,-1 z m 60.99941,-0.002 c -0.26363,-0.70857 -0.59377,-12.7637 -0.73364,-26.7887 l -0.25431,-25.5 -8,-0.5 -8,-0.5 0,-7 0,-7 25.79415,-0.26697 25.79415,-0.26697 -0.29415,7.26697 -0.29415,7.26697 -7.73375,0.29177 -7.73374,0.29177 -0.26626,26.70823 -0.26625,26.70823 -8.76635,0.28917 c -6.45434,0.21291 -8.89278,-0.0508 -9.2457,-1 z m 50.19923,0.56468 c -0.37795,-0.37748 -0.68718,-15.92103 -0.68718,-34.54075 l 0,-33.85404 20.25,0.2707 20.25,0.27071 0,6.5 0,6.5 -10,0.5 c -5.5,0.275 -10.5625,0.86406 -11.25,1.30902 -1.64834,1.06683 -1.60964,8.14762 0.0521,9.52672 0.71614,0.59434 5.32864,1.21194 10.25,1.37244 l 8.9479,0.29182 0.29569,6.75 0.29569,6.75 -8.61143,0 c -11.16065,0 -12.48433,0.72055 -12.46464,6.78518 0.008,2.59315 0.3621,5.26051 0.78594,5.92747 0.50275,0.79114 4.40794,1.31254 11.23469,1.5 l 10.46406,0.28735 0,7 0,7 -19.56282,0.27052 c -10.75955,0.14878 -19.87205,-0.0387 -20.25,-0.41667 z m 56.76746,-0.61146 c -0.26542,-0.69168 -0.3638,-16.10418 -0.21861,-34.25 l 0.26397,-32.99192 15.40168,-0.27686 c 11.57105,-0.20801 16.71694,0.10549 20.68989,1.26046 15.21025,4.42174 19.29076,21.6867 7.83346,33.144 -2.43377,2.43377 -4.42503,4.65007 -4.42503,4.92513 0,0.27505 4.05,6.55132 9,13.94727 4.95,7.39595 9,13.90906 9,14.47359 0,1.18133 -17.8799,1.41982 -19.57438,0.2611 -0.59091,-0.40408 -4.17227,-6.02219 -7.95858,-12.48469 -5.4564,-9.31302 -7.33726,-11.75 -9.06863,-11.75 -3.01757,0 -3.39841,1.57805 -3.39841,14.08179 l 0,10.91821 -8.53138,0 c -5.93015,0 -8.67853,-0.38345 -9.01398,-1.25761 z m 26.14877,-38.7817 c 3.64971,-1.38762 5.32629,-3.78516 5.36479,-7.67173 0.0448,-4.51938 -3.20334,-7.28849 -8.54977,-7.28849 -4.8097,0 -5.41843,0.85916 -5.41843,7.64753 0,7.77344 2.28471,9.71552 8.60341,7.31316 z m 44.06326,39.37264 c -0.36667,-0.36619 -0.66667,-15.89119 -0.66667,-34.49953 l 0,-33.83333 9,0 9,0 0,34.5 0,34.5 -8.33333,0 c -4.58334,0 -8.63334,-0.3 -9,-0.66667 z m 38.02051,0.0205 c -0.37795,-0.37746 -0.68718,-15.92101 -0.68718,-34.54073 l 0,-33.85404 20.25,0.2707 20.25,0.27071 0,6.5 0,6.5 -10,0.5 c -5.5,0.275 -10.5625,0.86406 -11.25,1.30902 -1.64834,1.06683 -1.60964,8.14762 0.0521,9.52672 0.71614,0.59434 5.32864,1.21194 10.25,1.37244 l 8.9479,0.29182 0.29569,6.75 0.29569,6.75 -8.61143,0 c -11.16065,0 -12.48433,0.72055 -12.46464,6.78518 0.008,2.59315 0.3621,5.26051 0.78594,5.92747 0.50275,0.79114 4.40794,1.31254 11.23469,1.5 l 10.46406,0.28735 0,7 0,7 -19.56282,0.27052 c -10.75955,0.14878 -19.87205,-0.0387 -20.25,-0.41667 z M 276.28571,890.6037 c -102.68626,-2.28732 -167.15297,-6.53174 -173.00758,-11.39063 -1.47616,-1.22511 -1.83297,-3.38455 -4.460184,-26.99371 -7.378497,-66.30597 -9.917469,-150.54441 -6.540447,-217 5.311221,-104.51822 24.781311,-168.75084 78.356091,-258.5 18.94662,-31.73961 41.94274,-64.72409 84.01021,-120.5 24.49666,-32.47935 36.05299,-49.47368 39.00148,-57.35421 5.15897,-13.78859 7.22318,-42.41519 7.76213,-107.645793 l 0.43376,-52.5 2.36795,-2.112301 c 13.83699,-12.343123 126.32743,-12.343123 140.15086,0 l 2.36563,2.112301 0.4424,52.5 c 0.5508,65.364993 2.60548,93.874093 7.75813,107.645793 3.02925,8.09639 14.51416,24.82336 43.63128,63.54593 53.23482,70.79645 78.84103,109.65655 102.33778,155.30828 35.97039,69.88671 50.937,128.65167 55.39421,217.5 3.08395,61.47422 1.32043,137.65366 -4.59519,198.5 -2.84954,29.30955 -4.85836,43.83618 -6.25865,45.25888 -3.95917,4.02254 -44.3055,7.50016 -119.64986,10.31312 -25.93829,0.9684 -219.28488,1.98538 -249.5,1.31234 z M 405.02956,721.47561 c 16.36588,-16.35906 29.75615,-30.20078 29.75615,-30.75938 0,-0.55859 -8.93974,-9.94698 -19.8661,-20.86309 -22.29038,-22.26949 -20.21773,-21.29479 -28.09211,-13.21071 -2.45201,2.51731 -4.89801,4.57693 -5.43555,4.57693 -1.42676,0 -5.60624,-4.14387 -5.60624,-5.55847 0,-1.44679 31.29617,-31.44153 32.80573,-31.44153 0.57701,0 1.98256,1.18669 3.12345,2.63709 l 2.07434,2.6371 -5.55565,6.32796 c -4.50546,5.1318 -5.3685,6.66537 -4.56566,8.11291 0.54449,0.98172 9.50863,10.27045 19.9203,20.64162 16.4229,16.35902 19.1798,18.71837 20.8139,17.81251 1.03597,-0.57429 15.15648,-14.34805 31.37891,-30.60835 l 29.49531,-29.56419 -20.71472,-20.71472 -20.71473,-20.71473 -2.93172,2.80877 c -1.61244,1.54482 -3.53871,2.64864 -4.28059,2.45294 -0.74188,-0.1957 -11.67808,-10.80441 -24.30268,-23.57491 l -22.95381,-23.2191 2.70381,-2.82217 c 1.4871,-1.55219 2.70381,-3.47676 2.70381,-4.27683 0,-0.80006 -8.9936,-10.43982 -19.98578,-21.42169 l -19.98578,-19.96704 -5.26422,4.96098 c -17.95586,16.92151 -55.76422,55.22458 -55.76422,56.49387 0,0.8342 8.99504,10.50334 19.98897,21.48696 l 19.98898,19.97024 5.79002,-5.72961 c 3.18451,-3.15129 6.47985,-5.72961 7.32297,-5.72961 1.52836,0 5.90906,5.08002 5.90906,6.85236 0,1.30267 -30.92195,31.14764 -32.27162,31.14764 -1.71888,0 -5.72838,-4.17055 -5.72838,-5.95847 0,-0.88542 2.475,-4.05411 5.5,-7.04153 3.025,-2.98742 5.5,-5.87141 5.5,-6.40885 0,-1.31912 -39.15793,-40.59115 -40.47322,-40.59115 -0.57149,0 -14.74688,13.71333 -31.50087,30.47408 l -30.46179,30.47407 19.93502,20.02593 c 10.96426,11.01425 20.66758,20.02592 21.56295,20.02592 0.89536,0 2.44242,-0.9 3.43791,-2 0.99549,-1.1 2.34794,-2 3.00545,-2 1.38233,0 46.49455,46.32566 46.49455,47.74517 0,0.51967 -0.9,1.75934 -2,2.75483 -1.1,0.99549 -2,2.52351 -2,3.39561 0,2.01992 37.97036,40.10439 39.98423,40.10439 0.82691,0 14.89374,-13.38469 31.25962,-29.74375 z"
       style="fill:#a0a0a0" />
    <path
       inkscape:connector-curvature="0"
       id="path3411"
       d="m 108.08765,1019.4694 0.19806,-22.75004 2.25,-0.31955 c 2.17222,-0.3085 2.25,-0.0434 2.25,7.66819 0,11.6584 -0.52618,11.1514 11.5718,11.1514 12.35351,0 12.4282,-0.069 12.4282,-11.5039 0,-7.34605 0.0852,-7.62314 2.25,-7.31569 l 2.25,0.31955 0.19806,22.75004 0.19806,22.75 -2.69806,0 -2.69806,0 0.31351,-9.8673 c 0.40593,-12.7714 0.091,-13.1327 -11.45068,-13.1327 -12.39988,0 -12.36283,-0.038 -12.36283,12.5352 0,10.4366 -0.007,10.4648 -2.44806,10.4648 l -2.44806,0 0.19806,-22.75 z m 73.64768,0 7.81738,-22.75004 3.46201,-0.30116 3.46201,-0.30115 7.20059,20.99235 c 8.99078,26.2115 8.7692,25.11 5.05097,25.11 -1.61842,0 -2.84957,-0.3375 -2.73589,-0.75 0.30138,-1.0936 -3.2937,-11.5261 -4.49295,-13.038 -0.71945,-0.907 -3.41633,-1.2027 -9.11768,-1 l -8.09606,0.288 -2.48526,7.25 c -2.26073,6.595 -2.72906,7.25 -5.18388,7.25 l -2.69862,0 7.81738,-22.75 z m 16.92226,2.8503 c 1.12671,-0.7137 0.84746,-2.4423 -1.5625,-9.6722 -1.61391,-4.8417 -3.43256,-8.9692 -4.04145,-9.1722 -1.41486,-0.4716 -6.80504,15.902 -5.95992,18.1044 0.46302,1.2066 1.89214,1.6357 5.41061,1.6244 2.62976,-0.01 5.39873,-0.4064 6.15326,-0.8844 z m 54.62812,17.9468 c -10.56244,-4.7837 -15.22072,-17.7059 -10.92622,-30.3097 1.91938,-5.633 8.62932,-12.14481 14.07152,-13.65595 7.6449,-2.12276 19.10409,-0.74457 18.08159,2.17466 -0.29672,0.84714 -2.25222,1.14465 -6.13129,0.9328 -13.78341,-0.75273 -21.79185,6.58889 -21.7281,19.91899 0.0615,12.863 8.76649,19.8928 22.61717,18.265 4.6623,-0.548 5.51533,-0.4004 5.51533,0.9542 0,0.8814 -0.87042,2.0684 -1.93426,2.6377 -3.13763,1.6792 -15.06727,1.1197 -19.56574,-0.9177 z m 55.28617,-21.1111 0.28618,-23.06566 2.21382,0.31481 c 2.06594,0.29378 2.24723,0.94944 2.71383,9.81485 0.275,5.225 0.88617,9.4276 1.35816,9.3392 0.47198,-0.088 4.41893,-4.4759 8.77099,-9.75 6.11643,-7.41224 8.47563,-9.58924 10.39184,-9.58924 1.36346,0 2.47901,0.36945 2.47901,0.821 0,0.45154 -3.15,4.55034 -7,9.10854 -3.85,4.5582 -7,8.7287 -7,9.2678 0,0.5391 3.31093,5.7778 7.35763,11.6414 4.0467,5.8637 7.88753,11.6738 8.53519,12.9113 1.08838,2.0796 0.96416,2.25 -1.64058,2.25 -2.47222,0 -3.72505,-1.3502 -10.20706,-11 -4.06391,-6.05 -7.91684,-11 -8.56207,-11 -3.1069,0 -4.37258,3.5444 -4.55919,12.7676 l -0.1868,9.2324 -2.61856,8e-4 -2.61856,9e-4 0.28617,-23.0657 z m 62.46383,21.8435 c -1.2375,-0.5968 -2.25,-1.9664 -2.25,-3.0436 0,-1.7448 0.4091,-1.8674 3.75,-1.124 2.0625,0.459 5.713,0.8332 8.11223,0.8315 3.52647,0 4.8197,-0.5349 6.75,-2.779 5.01703,-5.8326 2.4343,-10.5228 -8.85679,-16.0836 -4.66933,-2.2997 -6.75858,-4.0205 -8.23978,-6.7868 -1.84208,-3.4403 -1.87793,-4.0073 -0.5,-7.9094 0.81639,-2.3119 2.70318,-5.10566 4.19287,-6.20834 5.00211,-3.70261 18.79147,-3.15863 18.79147,0.74131 0,1.16609 -1.41307,1.42763 -6.88685,1.27475 -8.15115,-0.22767 -11.11315,1.58158 -11.11315,6.78828 0,3.9524 2.66469,6.5456 10.07233,9.8023 7.29603,3.2077 9.92767,6.5787 9.92767,12.7171 0,5.309 -2.29657,9.0678 -7.03864,11.52 -3.30999,1.7116 -13.37625,1.868 -16.71136,0.2595 z m 57.78765,-21.2987 c -0.117,-26.02022 -1.04129,-24.00112 10.96235,-23.94707 8.40837,0.0379 12.58945,1.80834 15.36446,6.50607 3.39809,5.7525 1.0999,14.6441 -4.78097,18.4974 -1.3816,0.9053 -5.24659,1.8939 -8.58888,2.197 -7.52836,0.6826 -8.26259,1.7947 -7.82093,11.845 l 0.32632,7.4255 -2.68055,0 -2.68055,0 -0.10125,-22.5192 z m 19.58241,-3.6464 c 1.34309,-1.3431 2.70188,-4.0435 3.01953,-6.0009 0.8285,-5.1055 -3.36088,-9.6169 -9.70723,-10.45336 -6.46263,-0.85181 -7.93236,0.86336 -7.93236,9.25696 0,9.3267 0.98595,10.7148 7.18726,10.1189 3.52717,-0.3389 5.70696,-1.1957 7.4328,-2.9216 z m 40.43627,3.4156 7.63746,-22.75004 3.65311,-0.31037 c 2.0092,-0.1707 3.6531,-0.16069 3.6531,0.0222 0,0.18294 3.36535,10.11011 7.47856,22.06041 4.11321,11.9503 7.15071,21.7347 6.75,21.7431 -0.40071,0.01 -0.0536,0.4515 0.77144,0.9847 1.14207,0.7381 0.74163,0.973 -1.67815,0.9847 -2.96563,0.014 -3.31701,-0.3692 -5.25463,-5.7347 -3.29318,-9.1192 -2.78291,-8.75 -12.09287,-8.75 l -8.30768,0 -2.41667,7.25 c -2.20652,6.6195 -2.65208,7.25 -5.1239,7.25 l -2.70724,0 7.63747,-22.75 z m 17.45868,2.7257 c 0.62555,-1.0122 -4.09244,-16.7355 -5.48157,-18.2681 -0.39501,-0.4358 -1.14853,-0.2108 -1.67448,0.5 -1.64269,2.22 -5.54732,15.8591 -4.97052,17.3623 0.65018,1.6943 11.11381,2.0445 12.12657,0.4058 z m 54.07222,17.9921 c -5.19688,-2.5932 -7.40776,-4.6992 -9.74885,-9.2862 -6.53097,-12.7964 -0.60755,-29.8464 11.84296,-34.08873 8.19744,-2.79315 19.31866,-1.65301 19.31866,1.98053 0,1.3929 -0.8439,1.525 -5.95374,0.93193 -13.54376,-1.57192 -22.04626,5.75367 -22.04626,18.99467 0,13.3032 8.5587,20.5096 22.42294,18.8801 4.72195,-0.555 5.57706,-0.4098 5.57706,0.947 0,2.5411 -3.33747,3.676 -10.68426,3.6331 -4.69267,-0.028 -8.03455,-0.6481 -10.72851,-1.9924 z m 55.19878,-20.9984 0.28601,-23.03229 11.71399,0.28143 c 9.62069,0.23113 11.71399,0.54947 11.71399,1.78142 0,1.18519 -1.88889,1.60494 -9,2.00004 l -9,0.5 0,7 0,7 7.45532,0.2979 c 11.563,0.4621 13.98269,4.1909 2.73566,4.2157 -10.88749,0.024 -10.81328,-0.042 -10.47938,9.3631 l 0.2884,8.1233 9.5,0.5 c 8.99367,0.4734 9.50605,0.6199 9.61346,2.75 0.11197,2.2204 -0.0527,2.25 -12.5,2.2508 l -12.61346,9e-4 0.28601,-23.0323 z M 190.78571,979.67913 c -9.79361,-2.73765 -15.86381,-8.12672 -19.6665,-17.45977 -1.44021,-3.53474 -1.8335,-7.18127 -1.8335,-17 0,-11.37285 0.23385,-12.99595 2.59339,-18 5.44971,-11.55763 13.12161,-16.15888 28.01955,-16.80481 12.72251,-0.55162 18.89875,1.21162 25.71712,7.34193 7.54924,6.78742 9.57532,12.67603 9.62832,27.98391 0.0402,11.61456 -0.0698,12.24735 -3.25352,18.7144 -5.5126,11.19769 -12.91483,15.56377 -27.70486,16.34124 -5.33171,0.28027 -9.83445,-0.0923 -13.5,-1.1169 z m 19.85652,-16.9925 c 3.95712,-3.32969 5.39498,-8.03213 5.3536,-17.50868 -0.0586,-13.41831 -4.62157,-19.96399 -13.91046,-19.95485 -5.0807,0.005 -10.05361,3.20782 -12.06135,7.76816 -2.31461,5.25733 -2.30173,20.57212 0.0209,24.8898 2.82832,5.25768 6.31542,7.3383 12.29889,7.3383 4.20025,0 5.90777,-0.52115 8.29839,-2.53273 z m 395.14348,17.92377 c -1.375,-0.2538 -4.4125,-1.15783 -6.75,-2.00896 l -4.25,-1.5475 0,-7.91729 c 0,-4.35451 0.3375,-7.91706 0.75,-7.91679 0.4125,2.8e-4 3.14421,0.9105 6.07046,2.0227 7.82215,2.97303 16.4668,3.67383 19.64341,1.59243 2.97331,-1.94819 3.3392,-5.5994 0.78613,-7.84468 -0.9625,-0.84646 -5.125,-3.09144 -9.25,-4.98885 -11.93814,-5.49128 -16.01674,-9.7844 -17.44014,-18.35741 -1.62877,-9.80998 4.2105,-19.09114 13.8036,-21.93999 6.46079,-1.91864 17.64051,-1.89515 25.11914,0.0528 8.57906,2.23457 8.81286,2.57696 6.34824,9.29706 -1.14281,3.116 -2.45786,6.07857 -2.92235,6.58347 -0.50725,0.5514 -3.15359,0.22255 -6.6265,-0.82344 -10.54029,-3.17458 -19.7805,-0.87539 -16.70029,4.15543 0.5893,0.9625 5.47584,4.08229 10.85897,6.93287 14.67033,7.76849 17.55933,11.27576 17.55933,21.31711 0,13.3226 -9.23839,20.99805 -25.95438,21.56345 -4.70009,0.15898 -9.67062,0.0814 -11.04562,-0.17241 z m -499.29618,-1.02056 c -0.3871,-0.3871 -0.70382,-15.92881 -0.70382,-34.53715 l 0,-33.83333 15.82186,0 c 17.42481,0 22.61297,1.06611 27.57391,5.66616 8.92278,8.27367 8.71115,25.48732 -0.41471,33.73199 -4.39201,3.96792 -12.02968,6.60185 -19.14351,6.60185 -5.69146,0 -5.71446,0.051 -6.08775,13.5 l -0.2498,9 -8.04618,0.28715 c -4.4254,0.15793 -8.3629,-0.0296 -8.75,-0.41667 z m 27.3731,-40.29356 c 5.84384,-5.84383 2.65944,-13.46601 -5.38174,-12.88174 l -4.19518,0.30482 -0.29998,6.33731 c -0.18042,3.8114 0.16732,6.90038 0.87244,7.75 1.90832,2.29938 5.85705,1.63703 9.00446,-1.51039 z m 131.41162,39.71378 c -0.26396,-0.70989 -0.59436,-12.7657 -0.73423,-26.7907 l -0.25431,-25.5 -8,-0.5 -8,-0.5 -0.29415,-7.26697 -0.29415,-7.26697 25.79415,0.26697 25.79415,0.26697 0,7 0,7 -8,0.5 -8,0.5 -0.5,26.5 -0.5,26.5 -8.26577,0.2907 c -6.05219,0.21285 -8.39429,-0.055 -8.74569,-1 z m 60.99941,-0.002 c -0.26363,-0.70857 -0.59377,-12.7637 -0.73364,-26.7887 l -0.25431,-25.5 -8,-0.5 -8,-0.5 0,-7 0,-7 25.79415,-0.26697 25.79415,-0.26697 -0.29415,7.26697 -0.29415,7.26697 -7.73375,0.29177 -7.73374,0.29177 -0.26626,26.70823 -0.26625,26.70823 -8.76635,0.28917 c -6.45434,0.21291 -8.89278,-0.0508 -9.2457,-1 z m 50.19923,0.56468 c -0.37795,-0.37748 -0.68718,-15.92103 -0.68718,-34.54075 l 0,-33.85404 20.25,0.2707 20.25,0.27071 0,6.5 0,6.5 -10,0.5 c -5.5,0.275 -10.5625,0.86406 -11.25,1.30902 -1.64834,1.06683 -1.60964,8.14762 0.0521,9.52672 0.71614,0.59434 5.32864,1.21194 10.25,1.37244 l 8.9479,0.29182 0.29569,6.75 0.29569,6.75 -8.61143,0 c -11.16065,0 -12.48433,0.72055 -12.46464,6.78518 0.008,2.59315 0.3621,5.26051 0.78594,5.92747 0.50275,0.79114 4.40794,1.31254 11.23469,1.5 l 10.46406,0.28735 0,7 0,7 -19.56282,0.27052 c -10.75955,0.14878 -19.87205,-0.0387 -20.25,-0.41667 z m 56.76746,-0.61146 c -0.26542,-0.69168 -0.3638,-16.10418 -0.21861,-34.25 l 0.26397,-32.99192 15.40168,-0.27686 c 11.57105,-0.20801 16.71694,0.10549 20.68989,1.26046 15.21025,4.42174 19.29076,21.6867 7.83346,33.144 -2.43377,2.43377 -4.42503,4.65007 -4.42503,4.92513 0,0.27505 4.05,6.55132 9,13.94727 4.95,7.39595 9,13.90906 9,14.47359 0,1.18133 -17.8799,1.41982 -19.57438,0.2611 -0.59091,-0.40408 -4.17227,-6.02219 -7.95858,-12.48469 -5.4564,-9.31302 -7.33726,-11.75 -9.06863,-11.75 -3.01757,0 -3.39841,1.57805 -3.39841,14.08179 l 0,10.91821 -8.53138,0 c -5.93015,0 -8.67853,-0.38345 -9.01398,-1.25761 z m 26.14877,-38.7817 c 3.64971,-1.38762 5.32629,-3.78516 5.36479,-7.67173 0.0448,-4.51938 -3.20334,-7.28849 -8.54977,-7.28849 -4.8097,0 -5.41843,0.85916 -5.41843,7.64753 0,7.77344 2.28471,9.71552 8.60341,7.31316 z m 44.06326,39.37264 c -0.36667,-0.36619 -0.66667,-15.89119 -0.66667,-34.49953 l 0,-33.83333 9,0 9,0 0,34.5 0,34.5 -8.33333,0 c -4.58334,0 -8.63334,-0.3 -9,-0.66667 z m 38.02051,0.0205 c -0.37795,-0.37746 -0.68718,-15.92101 -0.68718,-34.54073 l 0,-33.85404 20.25,0.2707 20.25,0.27071 0,6.5 0,6.5 -10,0.5 c -5.5,0.275 -10.5625,0.86406 -11.25,1.30902 -1.64834,1.06683 -1.60964,8.14762 0.0521,9.52672 0.71614,0.59434 5.32864,1.21194 10.25,1.37244 l 8.9479,0.29182 0.29569,6.75 0.29569,6.75 -8.61143,0 c -11.16065,0 -12.48433,0.72055 -12.46464,6.78518 0.008,2.59315 0.3621,5.26051 0.78594,5.92747 0.50275,0.79114 4.40794,1.31254 11.23469,1.5 l 10.46406,0.28735 0,7 0,7 -19.56282,0.27052 c -10.75955,0.14878 -19.87205,-0.0387 -20.25,-0.41667 z M 269.28571,889.1402 c -95.50796,-1.89535 -161.318,-6.36891 -165.34623,-11.2397 -1.74828,-2.11397 -6.777987,-48.68255 -9.146103,-84.68114 -0.596986,-9.075 -1.536472,-21.9 -2.087747,-28.5 -1.63476,-19.57175 -2.250268,-84.78878 -1.028725,-109 5.720018,-113.37185 21.954675,-175.33469 67.204635,-256.5 22.65332,-40.63349 44.04653,-72.20456 94.8669,-140 42.51475,-56.71558 42.48246,-56.65672 45.539,-83 2.35196,-20.27067 3.49516,-51.73117 3.49676,-96.229679 l 0.002,-41.729676 3.75,-1.879559 c 4.48077,-2.245831 13.80729,-4.457738 28.75,-6.81844 8.60222,-1.359009 17.21243,-1.731778 39.5,-1.710107 26.17484,0.02545 29.7411,0.242191 43.71243,2.656651 8.36684,1.445917 17.81684,3.661866 21,4.924329 l 5.78757,2.295389 0.6243,53.995544 c 0.64297,55.609308 1.6926,76.109048 4.85317,94.784438 2.93463,17.34032 4.64788,20.11203 49.59794,80.24022 42.20899,56.46152 63.00405,86.75982 81.65499,118.97089 46.47948,80.27227 64.44119,137.59566 72.29281,230.71672 4.60012,54.55795 4.60733,105.19554 0.0243,170.78328 -3.02386,43.27477 -7.81824,88.41632 -9.62122,90.58878 -7.31425,8.81313 -203.68043,14.74034 -375.42632,11.33206 z M 405.02956,721.47561 c 16.36588,-16.35906 29.75615,-30.20078 29.75615,-30.75938 0,-0.55859 -8.93974,-9.94698 -19.8661,-20.86309 -22.29038,-22.26949 -20.21773,-21.29479 -28.09211,-13.21071 -2.45201,2.51731 -4.89801,4.57693 -5.43555,4.57693 -1.42676,0 -5.60624,-4.14387 -5.60624,-5.55847 0,-1.44679 31.29617,-31.44153 32.80573,-31.44153 0.57701,0 1.98256,1.18669 3.12345,2.63709 l 2.07434,2.6371 -5.55565,6.32796 c -4.50546,5.1318 -5.3685,6.66537 -4.56566,8.11291 0.54449,0.98172 9.50863,10.27045 19.9203,20.64162 16.4229,16.35902 19.1798,18.71837 20.8139,17.81251 1.03597,-0.57429 15.15648,-14.34805 31.37891,-30.60835 l 29.49531,-29.56419 -20.71472,-20.71472 -20.71473,-20.71473 -2.93172,2.80877 c -1.61244,1.54482 -3.53871,2.64864 -4.28059,2.45294 -0.74188,-0.1957 -11.67808,-10.80441 -24.30268,-23.57491 l -22.95381,-23.2191 2.70381,-2.82217 c 1.4871,-1.55219 2.70381,-3.47676 2.70381,-4.27683 0,-0.80006 -8.9936,-10.43982 -19.98578,-21.42169 l -19.98578,-19.96704 -5.26422,4.96098 c -17.95586,16.92151 -55.76422,55.22458 -55.76422,56.49387 0,0.8342 8.99504,10.50334 19.98897,21.48696 l 19.98898,19.97024 5.79002,-5.72961 c 3.18451,-3.15129 6.47985,-5.72961 7.32297,-5.72961 1.52836,0 5.90906,5.08002 5.90906,6.85236 0,1.30267 -30.92195,31.14764 -32.27162,31.14764 -1.71888,0 -5.72838,-4.17055 -5.72838,-5.95847 0,-0.88542 2.475,-4.05411 5.5,-7.04153 3.025,-2.98742 5.5,-5.87141 5.5,-6.40885 0,-1.31912 -39.15793,-40.59115 -40.47322,-40.59115 -0.57149,0 -14.74688,13.71333 -31.50087,30.47408 l -30.46179,30.47407 19.93502,20.02593 c 10.96426,11.01425 20.66758,20.02592 21.56295,20.02592 0.89536,0 2.44242,-0.9 3.43791,-2 0.99549,-1.1 2.34794,-2 3.00545,-2 1.38233,0 46.49455,46.32566 46.49455,47.74517 0,0.51967 -0.9,1.75934 -2,2.75483 -1.1,0.99549 -2,2.52351 -2,3.39561 0,2.01992 37.97036,40.10439 39.98423,40.10439 0.82691,0 14.89374,-13.38469 31.25962,-29.74375 z"
       style="fill:#cc5862" />
    <path
       inkscape:connector-curvature="0"
       id="path3409"
       d="m 108.08765,1019.4694 0.19806,-22.75004 2.25,-0.31955 c 2.17222,-0.3085 2.25,-0.0434 2.25,7.66819 0,11.6584 -0.52618,11.1514 11.5718,11.1514 12.35351,0 12.4282,-0.069 12.4282,-11.5039 0,-7.34605 0.0852,-7.62314 2.25,-7.31569 l 2.25,0.31955 0.19806,22.75004 0.19806,22.75 -2.69806,0 -2.69806,0 0.31351,-9.8673 c 0.40593,-12.7714 0.091,-13.1327 -11.45068,-13.1327 -12.39988,0 -12.36283,-0.038 -12.36283,12.5352 0,10.4366 -0.007,10.4648 -2.44806,10.4648 l -2.44806,0 0.19806,-22.75 z m 73.64768,0 7.81738,-22.75004 3.46201,-0.30116 3.46201,-0.30115 7.20059,20.99235 c 8.99078,26.2115 8.7692,25.11 5.05097,25.11 -1.61842,0 -2.84957,-0.3375 -2.73589,-0.75 0.30138,-1.0936 -3.2937,-11.5261 -4.49295,-13.038 -0.71945,-0.907 -3.41633,-1.2027 -9.11768,-1 l -8.09606,0.288 -2.48526,7.25 c -2.26073,6.595 -2.72906,7.25 -5.18388,7.25 l -2.69862,0 7.81738,-22.75 z m 16.92226,2.8503 c 1.12671,-0.7137 0.84746,-2.4423 -1.5625,-9.6722 -1.61391,-4.8417 -3.43256,-8.9692 -4.04145,-9.1722 -1.41486,-0.4716 -6.80504,15.902 -5.95992,18.1044 0.46302,1.2066 1.89214,1.6357 5.41061,1.6244 2.62976,-0.01 5.39873,-0.4064 6.15326,-0.8844 z m 54.62812,17.9468 c -10.56244,-4.7837 -15.22072,-17.7059 -10.92622,-30.3097 1.91938,-5.633 8.62932,-12.14481 14.07152,-13.65595 7.6449,-2.12276 19.10409,-0.74457 18.08159,2.17466 -0.29672,0.84714 -2.25222,1.14465 -6.13129,0.9328 -13.78341,-0.75273 -21.79185,6.58889 -21.7281,19.91899 0.0615,12.863 8.76649,19.8928 22.61717,18.265 4.6623,-0.548 5.51533,-0.4004 5.51533,0.9542 0,0.8814 -0.87042,2.0684 -1.93426,2.6377 -3.13763,1.6792 -15.06727,1.1197 -19.56574,-0.9177 z m 55.28617,-21.1111 0.28618,-23.06566 2.21382,0.31481 c 2.06594,0.29378 2.24723,0.94944 2.71383,9.81485 0.275,5.225 0.88617,9.4276 1.35816,9.3392 0.47198,-0.088 4.41893,-4.4759 8.77099,-9.75 6.11643,-7.41224 8.47563,-9.58924 10.39184,-9.58924 1.36346,0 2.47901,0.36945 2.47901,0.821 0,0.45154 -3.15,4.55034 -7,9.10854 -3.85,4.5582 -7,8.7287 -7,9.2678 0,0.5391 3.31093,5.7778 7.35763,11.6414 4.0467,5.8637 7.88753,11.6738 8.53519,12.9113 1.08838,2.0796 0.96416,2.25 -1.64058,2.25 -2.47222,0 -3.72505,-1.3502 -10.20706,-11 -4.06391,-6.05 -7.91684,-11 -8.56207,-11 -3.1069,0 -4.37258,3.5444 -4.55919,12.7676 l -0.1868,9.2324 -2.61856,8e-4 -2.61856,9e-4 0.28617,-23.0657 z m 62.46383,21.8435 c -1.2375,-0.5968 -2.25,-1.9664 -2.25,-3.0436 0,-1.7448 0.4091,-1.8674 3.75,-1.124 2.0625,0.459 5.713,0.8332 8.11223,0.8315 3.52647,0 4.8197,-0.5349 6.75,-2.779 5.01703,-5.8326 2.4343,-10.5228 -8.85679,-16.0836 -4.66933,-2.2997 -6.75858,-4.0205 -8.23978,-6.7868 -1.84208,-3.4403 -1.87793,-4.0073 -0.5,-7.9094 0.81639,-2.3119 2.70318,-5.10566 4.19287,-6.20834 5.00211,-3.70261 18.79147,-3.15863 18.79147,0.74131 0,1.16609 -1.41307,1.42763 -6.88685,1.27475 -8.15115,-0.22767 -11.11315,1.58158 -11.11315,6.78828 0,3.9524 2.66469,6.5456 10.07233,9.8023 7.29603,3.2077 9.92767,6.5787 9.92767,12.7171 0,5.309 -2.29657,9.0678 -7.03864,11.52 -3.30999,1.7116 -13.37625,1.868 -16.71136,0.2595 z m 57.78765,-21.2987 c -0.117,-26.02022 -1.04129,-24.00112 10.96235,-23.94707 8.40837,0.0379 12.58945,1.80834 15.36446,6.50607 3.39809,5.7525 1.0999,14.6441 -4.78097,18.4974 -1.3816,0.9053 -5.24659,1.8939 -8.58888,2.197 -7.52836,0.6826 -8.26259,1.7947 -7.82093,11.845 l 0.32632,7.4255 -2.68055,0 -2.68055,0 -0.10125,-22.5192 z m 19.58241,-3.6464 c 1.34309,-1.3431 2.70188,-4.0435 3.01953,-6.0009 0.8285,-5.1055 -3.36088,-9.6169 -9.70723,-10.45336 -6.46263,-0.85181 -7.93236,0.86336 -7.93236,9.25696 0,9.3267 0.98595,10.7148 7.18726,10.1189 3.52717,-0.3389 5.70696,-1.1957 7.4328,-2.9216 z m 40.43627,3.4156 7.63746,-22.75004 3.65311,-0.31037 c 2.0092,-0.1707 3.6531,-0.16069 3.6531,0.0222 0,0.18294 3.36535,10.11011 7.47856,22.06041 4.11321,11.9503 7.15071,21.7347 6.75,21.7431 -0.40071,0.01 -0.0536,0.4515 0.77144,0.9847 1.14207,0.7381 0.74163,0.973 -1.67815,0.9847 -2.96563,0.014 -3.31701,-0.3692 -5.25463,-5.7347 -3.29318,-9.1192 -2.78291,-8.75 -12.09287,-8.75 l -8.30768,0 -2.41667,7.25 c -2.20652,6.6195 -2.65208,7.25 -5.1239,7.25 l -2.70724,0 7.63747,-22.75 z m 17.45868,2.7257 c 0.62555,-1.0122 -4.09244,-16.7355 -5.48157,-18.2681 -0.39501,-0.4358 -1.14853,-0.2108 -1.67448,0.5 -1.64269,2.22 -5.54732,15.8591 -4.97052,17.3623 0.65018,1.6943 11.11381,2.0445 12.12657,0.4058 z m 54.07222,17.9921 c -5.19688,-2.5932 -7.40776,-4.6992 -9.74885,-9.2862 -6.53097,-12.7964 -0.60755,-29.8464 11.84296,-34.08873 8.19744,-2.79315 19.31866,-1.65301 19.31866,1.98053 0,1.3929 -0.8439,1.525 -5.95374,0.93193 -13.54376,-1.57192 -22.04626,5.75367 -22.04626,18.99467 0,13.3032 8.5587,20.5096 22.42294,18.8801 4.72195,-0.555 5.57706,-0.4098 5.57706,0.947 0,2.5411 -3.33747,3.676 -10.68426,3.6331 -4.69267,-0.028 -8.03455,-0.6481 -10.72851,-1.9924 z m 55.19878,-20.9984 0.28601,-23.03229 11.71399,0.28143 c 9.62069,0.23113 11.71399,0.54947 11.71399,1.78142 0,1.18519 -1.88889,1.60494 -9,2.00004 l -9,0.5 0,7 0,7 7.45532,0.2979 c 11.563,0.4621 13.98269,4.1909 2.73566,4.2157 -10.88749,0.024 -10.81328,-0.042 -10.47938,9.3631 l 0.2884,8.1233 9.5,0.5 c 8.99367,0.4734 9.50605,0.6199 9.61346,2.75 0.11197,2.2204 -0.0527,2.25 -12.5,2.2508 l -12.61346,9e-4 0.28601,-23.0323 z M 193.12946,979.24282 c -9.51146,-2.03024 -16.08502,-7.23374 -20.24237,-16.02346 -2.3717,-5.01438 -2.60067,-6.60367 -2.59331,-18 0.007,-10.55001 0.33314,-13.202 2.09184,-17 2.9941,-6.46591 6.92516,-10.71035 12.78035,-13.79916 4.70317,-2.48109 6.05544,-2.70084 16.61974,-2.70084 9.89156,0 12.19932,0.32219 16.5,2.30361 6.75514,3.11225 9.79547,6.2519 13.1166,13.54507 2.51312,5.51878 2.80539,7.28245 2.84228,17.15132 0.0658,17.60132 -4.94512,27.45157 -16.49175,32.4188 -5.6709,2.43955 -18.08383,3.50054 -24.62338,2.10466 z m 16.95933,-14.68019 c 4.47717,-2.31523 7.058,-9.20491 7.05857,-18.84327 8.6e-4,-14.52925 -4.00775,-20.55745 -14.15845,-21.29168 -5.17629,-0.37442 -6.14646,-0.12694 -9.03693,2.30523 -4.42795,3.72587 -6.14349,7.43663 -6.82827,14.76975 -0.85985,9.20802 1.06603,17.05406 5.20106,21.18909 1.85767,1.85767 4.40884,3.58835 5.66926,3.84595 3.24209,0.66261 8.7257,-0.23286 12.09476,-1.97507 z m 395.19692,14.63038 c -9.24608,-1.86591 -9.5,-2.13039 -9.5,-9.89504 l 0,-6.97089 5.69921,1.96082 c 6.71284,2.30955 15.0991,3.44988 18.7087,2.54393 3.6939,-0.92711 5.90169,-4.66797 4.66878,-7.91076 -0.72528,-1.90762 -3.81597,-4.0207 -12.01528,-8.21475 -12.00788,-6.14218 -14.38066,-8.48713 -16.02859,-15.84052 -3.01872,-13.47013 5.33932,-22.60461 21.45728,-23.45059 7.94977,-0.41725 19.74061,1.63486 21.92094,3.81519 0.98248,0.98248 -0.88606,7.88875 -2.86753,10.59856 -0.89923,1.22978 -1.6516,1.29951 -4.07323,0.37753 -10.07452,-3.83567 -18.90962,-3.06917 -20.11798,1.74535 -0.96005,3.82512 0.48412,5.35688 9.22143,9.78073 4.35945,2.20726 9.66691,5.0893 11.79435,6.40453 9.81834,6.06992 10.07092,23.06921 0.45177,30.4061 -6.22265,4.74624 -18.88851,6.75491 -29.31985,4.64981 z m -498.5,-33.47365 0,-33.5 14.75,0.006 c 15.78795,0.006 20.07329,0.72685 25.31356,4.25827 5.49249,3.70139 7.43996,8.09798 7.41326,16.73615 -0.018,5.81554 -0.52774,8.45428 -2.26975,11.74888 -3.77047,7.13098 -12.16654,11.16779 -23.35008,11.22667 -3.29518,0.0173 -4.81922,0.48363 -5.25,1.60624 -0.33385,0.86956 -0.60699,6.04456 -0.60699,11.49958 l 0,9.91821 -8,0 -8,0 0,-33.5 z m 26.02002,-4.01035 c 3.57738,-1.84994 4.97998,-4.3095 4.97998,-8.73278 0,-4.63047 -1.80301,-6.70052 -6.81748,-7.8272 -6.94598,-1.56065 -8.18252,-0.29042 -8.18252,8.40551 0,4.31708 0.48691,7.75173 1.2,8.46482 1.63636,1.63635 5.30514,1.50726 8.82002,-0.31035 z m 132.74631,10.76035 -0.26633,-26.75 -8,-0.5 -8,-0.5 -0.29772,-6.25 -0.29771,-6.25 25.09543,0 25.09543,0 -0.29771,6.25 -0.29772,6.25 -8,0.5 -8,0.5 -0.26633,26.75 -0.26634,26.75 -7.96733,0 -7.96733,0 -0.26634,-26.75 z m 61.72284,25.54234 c -0.26431,-0.71079 -0.59499,-12.76734 -0.73486,-26.79234 l -0.25431,-25.5 -8,-0.5 -8,-0.5 -0.29772,-6.25 -0.29771,-6.25 25.04771,0 25.04772,0 0,6.45794 0,6.45793 -7.75,0.29207 -7.75,0.29206 -0.5,26.5 -0.5,26.5 -7.76514,0.29234 c -5.64987,0.2127 -7.89604,-0.0597 -8.24569,-1 z m 49.51083,-32.29234 0,-33.54319 19.25,0.2716 19.25,0.27159 0.2999,5.75 0.29991,5.75 -9.61565,0 c -12.22754,0 -13.48416,0.63699 -13.48416,6.83518 0,2.62065 0.54,5.30482 1.2,5.96482 0.76129,0.76129 4.6,1.2 10.5,1.2 l 9.3,0 0,6 0,6 -8.56574,0 c -11.48433,0 -12.43821,0.59796 -12.41895,7.78518 0.008,3.14315 0.3621,6.26051 0.78594,6.92747 0.50275,0.79114 4.40794,1.31254 11.23469,1.5 l 10.46406,0.28735 0,6 0,6 -19.25,0.27159 -19.25,0.2716 0,-33.54319 z m 57.66667,32.83333 c -0.36667,-0.36666 -0.66667,-15.44166 -0.66667,-33.5 l 0,-32.83333 14.8185,0 c 10.44365,0 16.35239,0.45552 20.01409,1.54293 15.44554,4.58683 18.80798,20.05579 6.98463,32.13293 -2.57465,2.62991 -3.87025,4.74356 -3.49965,5.70933 0.32365,0.84341 4.2096,6.93851 8.63544,13.54467 4.42584,6.60616 8.04699,12.47446 8.04699,13.04067 0,0.62514 -3.33511,1.02947 -8.49153,1.02947 -7.01698,0 -8.67546,-0.30388 -9.55075,-1.75 -0.58258,-0.9625 -3.84889,-6.475 -7.25848,-12.25 -5.35798,-9.07511 -6.59163,-10.54479 -9.09073,-10.83008 -1.64233,-0.18747 -3.25577,0.24454 -3.73469,1 -0.46376,0.73155 -0.85009,6.39258 -0.85851,12.58008 l -0.0153,11.25 -7.33333,0 c -4.03334,0 -7.63334,-0.3 -8,-0.66667 z m 29.05033,-39.79072 c 3.1219,-3.62941 3.04754,-8.86898 -0.17155,-12.08806 -1.94335,-1.94336 -3.48303,-2.45455 -7.39301,-2.45455 -5.74195,0 -6.15244,0.57696 -6.15244,8.64753 0,8.16596 1.1584,9.70743 6.81583,9.06976 3.355,-0.37816 5.24263,-1.2465 6.90117,-3.17468 z m 40.283,6.95739 0,-33.5 8,0 8,0 0,33.5 0,33.5 -8,0 -8,0 0,-33.5 z m 38,0 0,-33.54319 19.25,0.2716 19.25,0.27159 0.2999,5.75 0.29991,5.75 -9.61565,0 c -12.22754,0 -13.48416,0.63699 -13.48416,6.83518 0,2.62065 0.54,5.30482 1.2,5.96482 0.76129,0.76129 4.6,1.2 10.5,1.2 l 9.3,0 0,6 0,6 -8.56574,0 c -11.48433,0 -12.43821,0.59796 -12.41895,7.78518 0.008,3.14315 0.3621,6.26051 0.78594,6.92747 0.50275,0.79114 4.40794,1.31254 11.23469,1.5 l 10.46406,0.28735 0,6 0,6 -19.25,0.27159 -19.25,0.2716 0,-33.54319 z m -272.5,-56.57916 c -95.50796,-1.89535 -161.318,-6.36891 -165.34623,-11.2397 -1.74828,-2.11397 -6.777987,-48.68255 -9.146103,-84.68114 -0.596986,-9.075 -1.536472,-21.9 -2.087747,-28.5 -1.63476,-19.57175 -2.250268,-84.78878 -1.028725,-109 5.720018,-113.37185 21.954675,-175.33469 67.204635,-256.5 22.65332,-40.63349 44.04653,-72.20456 94.8669,-140 42.51475,-56.71558 42.48246,-56.65672 45.539,-83 2.35196,-20.27067 3.49516,-51.73117 3.49676,-96.229679 l 0.002,-41.729676 3.75,-1.879559 c 4.48077,-2.245831 13.80729,-4.457738 28.75,-6.81844 8.60222,-1.359009 17.21243,-1.731778 39.5,-1.710107 26.17484,0.02545 29.7411,0.242191 43.71243,2.656651 8.36684,1.445917 17.81684,3.661866 21,4.924329 l 5.78757,2.295389 0.6243,53.995544 c 0.64297,55.609308 1.6926,76.109048 4.85317,94.784438 2.93463,17.34032 4.64788,20.11203 49.59794,80.24022 42.20899,56.46152 63.00405,86.75982 81.65499,118.97089 46.47948,80.27227 64.44119,137.59566 72.29281,230.71672 4.60012,54.55795 4.60733,105.19554 0.0243,170.78328 -3.02386,43.27477 -7.81824,88.41632 -9.62122,90.58878 -7.31425,8.81313 -203.68043,14.74034 -375.42632,11.33206 z M 405.27037,723.0879 c 16.78344,-16.57231 30.51534,-30.87399 30.51534,-31.78151 0,-2.22066 -38.71149,-42.08703 -40.86782,-42.08703 -0.93527,0 -4.14476,2.475 -7.13218,5.5 -2.98742,3.025 -5.93981,5.5 -6.56085,5.5 -0.62105,0 -1.96313,-0.92151 -2.9824,-2.04779 -1.83362,-2.02612 -1.68761,-2.21341 13.79722,-17.69824 15.48483,-15.48483 15.67212,-15.63084 17.69824,-13.79722 1.12628,1.01927 2.04779,2.3629 2.04779,2.98583 0,0.62293 -2.25,3.34877 -5,6.05742 -2.75,2.70865 -5,5.62085 -5,6.47156 0,1.93454 40.38158,42.41089 41.80307,41.90118 1.85639,-0.66565 62.19693,-60.9211 62.19693,-62.10922 0,-1.71428 -40.1927,-41.76352 -41.91312,-41.76352 -0.8126,0 -2.75211,1.22121 -4.31004,2.7138 l -2.8326,2.71381 -22.47212,-22.45547 c -12.35967,-12.35051 -22.47212,-23.17698 -22.47212,-24.05882 0,-0.88184 0.9,-2.41783 2,-3.41332 1.1,-0.99549 2,-2.63092 2,-3.63429 0,-2.28665 -38.65134,-41.86571 -40.88439,-41.86571 -2.35645,0 -62.40052,60.34372 -61.96648,62.27572 0.43204,1.92312 39.49706,41.72428 40.95257,41.72428 0.57572,0 3.73065,-2.55999 7.01095,-5.68886 l 5.96418,-5.68886 2.69824,2.69824 2.69823,2.69824 -15.72727,15.72727 -15.72727,15.72727 -2.68066,-2.68066 -2.68066,-2.68065 5.75495,-6.55498 c 3.16522,-3.60524 5.6048,-6.95031 5.42128,-7.43349 -0.95891,-2.52465 -39.89801,-41.12352 -41.486,-41.12352 -1.97353,0 -62.34767,59.67284 -62.34767,61.62344 0,1.47651 39.85584,42.37656 41.29465,42.37656 0.60275,0 2.37062,-1.22125 3.92861,-2.71389 l 2.83269,-2.71389 22.97202,22.95573 c 12.63462,12.62566 22.97203,23.27646 22.97203,23.66844 0,0.39199 -1.15824,1.87094 -2.57386,3.28656 -1.41563,1.41563 -2.42813,2.95616 -2.25,3.42341 0.68033,1.7846 40.56515,42.09364 41.65064,42.09364 0.6284,0 14.87444,-13.55916 31.65788,-30.13146 z"
       style="fill:#5a5a59" />
    <path
       inkscape:connector-curvature="0"
       id="path3407"
       d="m 258.78571,1041.2194 c 1.20609,-0.7794 1.04625,-0.9724 -0.81574,-0.9847 -2.93509,-0.019 -5.9174,-1.5499 -9.52354,-4.8875 -4.72637,-4.3744 -6.05971,-7.9066 -6.08787,-16.1278 -0.0211,-6.144 0.42204,-8.3066 2.45073,-11.9613 2.80848,-5.0596 7.38727,-8.53374 13.37019,-10.14477 4.7094,-1.26811 13.18559,-0.71461 14.87132,0.97112 0.86314,0.86314 -0.38664,0.98702 -5.0453,0.50009 -11.75654,-1.2288 -19.98679,4.37856 -22.22068,15.13906 -3.24113,15.6125 7.11248,26.9617 22.80755,25.0008 3.79372,-0.474 5.21646,-0.3514 4.74647,0.409 -0.36914,0.5973 -1.88211,1.0929 -3.36215,1.1013 -2.10476,0.012 -2.36421,0.2265 -1.19098,0.9847 1.05262,0.6803 -0.43864,0.9694 -5,0.9694 -4.56136,0 -6.05262,-0.2891 -5,-0.9694 z m 115.83066,0.1258 c 0.94131,-0.5967 0.42926,-1.0238 -1.75,-1.4597 -1.69436,-0.3388 -3.08066,-1.1255 -3.08066,-1.7481 0,-0.6697 0.71467,-0.8551 1.75,-0.454 0.9625,0.3729 3.80706,0.9242 6.32124,1.2251 7.6163,0.9116 12.92876,-2.9513 12.92876,-9.4009 0,-4.3245 -2.67905,-7.2673 -9.39746,-10.3226 -8.20456,-3.7313 -10.85593,-6.6887 -10.78226,-12.027 0.10296,-7.45987 7.14344,-11.92096 16.58019,-10.50584 6.87423,1.03086 5.54916,2.23071 -2.36746,2.14374 -8.32575,-0.0915 -11.43301,2.0305 -11.43301,7.8078 0,4.4699 1.51093,6.1454 8.84017,9.803 3.33291,1.6633 7.29733,4.1858 8.80983,5.6055 6.20858,5.8279 1.50853,18.1505 -6.95034,18.2225 -1.52774,0.013 -1.57302,0.1618 -0.29966,0.9847 1.05964,0.6848 -0.26145,0.9694 -4.5,0.9694 -3.64313,0 -5.4773,-0.3314 -4.66934,-0.8436 z m 191.16934,-0.1258 c 1.20773,-0.7805 1.05192,-0.9724 -0.79966,-0.9847 -3.35684,-0.022 -7.4779,-2.4285 -10.9685,-6.404 -5.97279,-6.8027 -6.4821,-19.6162 -1.1243,-28.2853 4.03092,-6.52222 13.9445,-10.29512 23.34643,-8.88521 6.71038,1.00628 5.5995,2.63861 -1.30461,1.91699 -9.66127,-1.0098 -16.38949,2.27222 -20.27615,9.89072 -1.68803,3.3088 -2.00648,5.4785 -1.7221,11.7334 0.2984,6.5634 0.7543,8.2054 3.15058,11.347 4.30069,5.6385 7.94023,7.161 16.90661,7.0728 4.23956,-0.042 7.4755,0.3009 7.19098,0.7613 -0.28452,0.4603 -1.72826,0.8686 -3.2083,0.9073 -2.40282,0.063 -2.47681,0.1623 -0.69098,0.9297 1.37938,0.5927 -0.17218,0.8765 -5,0.9144 -4.8677,0.038 -6.54308,-0.2403 -5.5,-0.9144 z m -456.55326,-2.2782 c -0.26977,-0.703 -0.36815,-10.2284 -0.21862,-21.1674 0.20265,-14.8248 0.59018,-19.9952 1.52188,-20.3052 0.93051,-0.3096 1.25,1.62925 1.25,7.5856 0,4.4009 0.27315,8.7134 0.60699,9.5834 0.50347,1.312 2.51593,1.5818 11.8,1.5818 7.37234,0 11.60262,-0.4097 12.39301,-1.2 0.74248,-0.7425 1.2,-4.3963 1.2,-9.5834 0,-6.2622 0.31627,-8.27788 1.25,-7.96664 0.94667,0.31556 1.25,5.47224 1.25,21.25004 0,15.7778 -0.30333,20.9344 -1.25,21.25 -0.94159,0.3139 -1.25,-1.9302 -1.25,-9.0952 0,-12.4592 -0.19533,-12.6548 -12.63717,-12.6548 -13.43477,0 -13.36283,-0.065 -13.36283,12.0352 0,6.1787 -0.39187,9.9648 -1.03138,9.9648 -0.56726,0 -1.25211,-0.5752 -1.52188,-1.2782 z m 73.82757,-19.9032 c 6.82199,-20.12758 7.37279,-21.33569 9.85865,-21.62377 2.18972,-0.25376 2.83303,0.25127 3.82146,2.99997 3.54839,9.8678 13.04558,38.2272 13.04558,38.9552 0,0.4675 -0.5625,0.8461 -1.25,0.8414 -0.6875,0 -2.3785,-3.0422 -3.75778,-6.75 l -2.50778,-6.7414 -9.40708,0 -9.40708,0 -2.16974,6.5 c -1.3517,4.0493 -2.78848,6.6201 -3.81083,6.8186 -1.29821,0.2521 -0.13139,-4.1355 5.5846,-21 z m 17.32533,3.7823 c 0.29527,-0.7694 -0.91046,-5.9646 -2.6794,-11.5448 -2.45304,-7.7382 -3.59343,-10.0731 -4.80565,-9.8397 -2.24804,0.4329 -8.47474,19.6447 -6.95897,21.4711 1.55255,1.8707 13.72092,1.7978 14.44402,-0.087 z m 109.40036,-4.1009 c 0,-16.8871 0.27575,-21.57556 1.25,-21.25352 0.83683,0.27661 1.41527,3.61242 1.75,10.09222 0.275,5.3234 0.8375,9.675 1.25,9.6701 0.4125,0 1.0875,-0.014 1.5,-0.021 0.4125,-0.01 4.34282,-4.5066 8.73404,-10 6.9277,-8.66656 10.60092,-11.90364 10.4827,-9.23804 -0.0183,0.4125 -2.93925,4.12504 -6.49101,8.25004 -3.55175,4.125 -6.46179,8.1998 -6.46673,9.0551 -0.005,0.8554 3.18999,6.2554 7.09987,12.0001 8.14634,11.9691 8.64622,12.9448 6.63216,12.9448 -0.81012,0 -4.57077,-4.7125 -8.35699,-10.4722 -3.78622,-5.7597 -7.5165,-10.7224 -8.2895,-11.0283 -0.773,-0.3058 -2.4439,0.4195 -3.7131,1.6119 -2.00407,1.8827 -2.34539,3.29 -2.59454,10.6976 -0.19241,5.7202 -0.69861,8.666 -1.5369,8.9436 -0.97428,0.3227 -1.25,-4.3651 -1.25,-21.2526 z m 120.66667,20.8333 c -1.17557,-1.1755 -0.77703,-41.1471 0.41762,-41.88543 2.22531,-1.37532 15.53799,-0.6946 18.73358,0.95791 5.64135,2.91722 7.55503,9.37262 4.76091,16.05992 -1.8064,4.3233 -6.17696,6.6009 -13.99093,7.291 -3.34832,0.2957 -6.41846,1.0339 -6.82254,1.6405 -0.40408,0.6065 -0.74158,4.5903 -0.75,8.8528 -0.0141,7.1246 -0.58512,8.8469 -2.34864,7.0833 z m 17.43545,-21.6169 c 2.31502,-1.5559 3.69528,-3.477 4.33108,-6.0281 1.83229,-7.3518 -2.53964,-12.6078 -11.17747,-13.43779 -7.02946,-0.67544 -8.25573,0.86734 -8.25573,10.38659 0,10.0264 0.81011,11.3629 6.8873,11.3629 3.35774,0 5.84625,-0.6918 8.21482,-2.2836 z m 35.89788,20.9723 c 0,-0.8129 3.094,-10.4129 6.87556,-21.3333 6.7078,-19.37098 6.94312,-19.85544 9.64435,-19.85544 2.70613,0 2.92267,0.45266 9.56785,20.00004 3.73949,11 6.82453,20.6 6.85565,21.3333 0.13571,3.1976 -2.61495,0.038 -4.47014,-5.1354 -1.1147,-3.1083 -2.50576,-6.1304 -3.09125,-6.7159 -0.63961,-0.6396 -4.58756,-0.9482 -9.89076,-0.7733 l -8.82624,0.2913 -2.14701,6.4382 c -1.98979,5.9667 -4.51801,9.1846 -4.51801,5.7505 z m 23.66815,-16.2663 c 0.33296,-0.8677 -0.86417,-6.0645 -2.66028,-11.5485 -2.41567,-7.3757 -3.66443,-9.8933 -4.79773,-9.6724 -2.22598,0.4337 -8.56347,19.6678 -7.07237,21.4645 1.68039,2.0247 13.7375,1.8226 14.53038,-0.2436 z m 109.33185,-3.9224 0,-21.50004 10.5,0 c 12.76391,0 14.18882,1.80033 1.75,2.21107 l -8.75,0.28893 0,8.00004 0,8 7.9965,0.2965 c 10.78294,0.3998 12.36677,2.1988 1.9535,2.2188 -4.3725,0.01 -8.53111,0.384 -9.24135,0.8346 -0.93539,0.5934 -1.21103,3.2767 -1,9.7347 l 0.29135,8.9154 8.99247,0.2925 c 13.71479,0.446 13.08244,2.2075 -0.79247,2.2075 l -11.7,0 0,-21.5 z M 193.12946,979.24282 c -9.51146,-2.03024 -16.08502,-7.23374 -20.24237,-16.02346 -2.3717,-5.01438 -2.60067,-6.60367 -2.59331,-18 0.007,-10.55001 0.33314,-13.202 2.09184,-17 2.9941,-6.46591 6.92516,-10.71035 12.78035,-13.79916 4.70317,-2.48109 6.05544,-2.70084 16.61974,-2.70084 9.89156,0 12.19932,0.32219 16.5,2.30361 6.75514,3.11225 9.79547,6.2519 13.1166,13.54507 2.51312,5.51878 2.80539,7.28245 2.84228,17.15132 0.0658,17.60132 -4.94512,27.45157 -16.49175,32.4188 -5.6709,2.43955 -18.08383,3.50054 -24.62338,2.10466 z m 16.95933,-14.68019 c 4.47717,-2.31523 7.058,-9.20491 7.05857,-18.84327 8.6e-4,-14.52925 -4.00775,-20.55745 -14.15845,-21.29168 -5.17629,-0.37442 -6.14646,-0.12694 -9.03693,2.30523 -4.42795,3.72587 -6.14349,7.43663 -6.82827,14.76975 -0.85985,9.20802 1.06603,17.05406 5.20106,21.18909 1.85767,1.85767 4.40884,3.58835 5.66926,3.84595 3.24209,0.66261 8.7257,-0.23286 12.09476,-1.97507 z m 395.19692,14.63038 c -9.24608,-1.86591 -9.5,-2.13039 -9.5,-9.89504 l 0,-6.97089 5.69921,1.96082 c 6.71284,2.30955 15.0991,3.44988 18.7087,2.54393 3.6939,-0.92711 5.90169,-4.66797 4.66878,-7.91076 -0.72528,-1.90762 -3.81597,-4.0207 -12.01528,-8.21475 -12.00788,-6.14218 -14.38066,-8.48713 -16.02859,-15.84052 -3.01872,-13.47013 5.33932,-22.60461 21.45728,-23.45059 7.94977,-0.41725 19.74061,1.63486 21.92094,3.81519 0.98248,0.98248 -0.88606,7.88875 -2.86753,10.59856 -0.89923,1.22978 -1.6516,1.29951 -4.07323,0.37753 -10.07452,-3.83567 -18.90962,-3.06917 -20.11798,1.74535 -0.96005,3.82512 0.48412,5.35688 9.22143,9.78073 4.35945,2.20726 9.66691,5.0893 11.79435,6.40453 9.81834,6.06992 10.07092,23.06921 0.45177,30.4061 -6.22265,4.74624 -18.88851,6.75491 -29.31985,4.64981 z m -498.5,-33.47365 0,-33.5 14.75,0.006 c 15.78795,0.006 20.07329,0.72685 25.31356,4.25827 5.49249,3.70139 7.43996,8.09798 7.41326,16.73615 -0.018,5.81554 -0.52774,8.45428 -2.26975,11.74888 -3.77047,7.13098 -12.16654,11.16779 -23.35008,11.22667 -3.29518,0.0173 -4.81922,0.48363 -5.25,1.60624 -0.33385,0.86956 -0.60699,6.04456 -0.60699,11.49958 l 0,9.91821 -8,0 -8,0 0,-33.5 z m 26.02002,-4.01035 c 3.57738,-1.84994 4.97998,-4.3095 4.97998,-8.73278 0,-4.63047 -1.80301,-6.70052 -6.81748,-7.8272 -6.94598,-1.56065 -8.18252,-0.29042 -8.18252,8.40551 0,4.31708 0.48691,7.75173 1.2,8.46482 1.63636,1.63635 5.30514,1.50726 8.82002,-0.31035 z m 132.74631,10.76035 -0.26633,-26.75 -8,-0.5 -8,-0.5 -0.29772,-6.25 -0.29771,-6.25 25.09543,0 25.09543,0 -0.29771,6.25 -0.29772,6.25 -8,0.5 -8,0.5 -0.26633,26.75 -0.26634,26.75 -7.96733,0 -7.96733,0 -0.26634,-26.75 z m 61.72284,25.54234 c -0.26431,-0.71079 -0.59499,-12.76734 -0.73486,-26.79234 l -0.25431,-25.5 -8,-0.5 -8,-0.5 -0.29772,-6.25 -0.29771,-6.25 25.04771,0 25.04772,0 0,6.45794 0,6.45793 -7.75,0.29207 -7.75,0.29206 -0.5,26.5 -0.5,26.5 -7.76514,0.29234 c -5.64987,0.2127 -7.89604,-0.0597 -8.24569,-1 z m 49.51083,-32.29234 0,-33.54319 19.25,0.2716 19.25,0.27159 0.2999,5.75 0.29991,5.75 -9.61565,0 c -12.22754,0 -13.48416,0.63699 -13.48416,6.83518 0,2.62065 0.54,5.30482 1.2,5.96482 0.76129,0.76129 4.6,1.2 10.5,1.2 l 9.3,0 0,6 0,6 -8.56574,0 c -11.48433,0 -12.43821,0.59796 -12.41895,7.78518 0.008,3.14315 0.3621,6.26051 0.78594,6.92747 0.50275,0.79114 4.40794,1.31254 11.23469,1.5 l 10.46406,0.28735 0,6 0,6 -19.25,0.27159 -19.25,0.2716 0,-33.54319 z m 57.66667,32.83333 c -0.36667,-0.36666 -0.66667,-15.44166 -0.66667,-33.5 l 0,-32.83333 14.8185,0 c 10.44365,0 16.35239,0.45552 20.01409,1.54293 15.44554,4.58683 18.80798,20.05579 6.98463,32.13293 -2.57465,2.62991 -3.87025,4.74356 -3.49965,5.70933 0.32365,0.84341 4.2096,6.93851 8.63544,13.54467 4.42584,6.60616 8.04699,12.47446 8.04699,13.04067 0,0.62514 -3.33511,1.02947 -8.49153,1.02947 -7.01698,0 -8.67546,-0.30388 -9.55075,-1.75 -0.58258,-0.9625 -3.84889,-6.475 -7.25848,-12.25 -5.35798,-9.07511 -6.59163,-10.54479 -9.09073,-10.83008 -1.64233,-0.18747 -3.25577,0.24454 -3.73469,1 -0.46376,0.73155 -0.85009,6.39258 -0.85851,12.58008 l -0.0153,11.25 -7.33333,0 c -4.03334,0 -7.63334,-0.3 -8,-0.66667 z m 29.05033,-39.79072 c 3.1219,-3.62941 3.04754,-8.86898 -0.17155,-12.08806 -1.94335,-1.94336 -3.48303,-2.45455 -7.39301,-2.45455 -5.74195,0 -6.15244,0.57696 -6.15244,8.64753 0,8.16596 1.1584,9.70743 6.81583,9.06976 3.355,-0.37816 5.24263,-1.2465 6.90117,-3.17468 z m 40.283,6.95739 0,-33.5 8,0 8,0 0,33.5 0,33.5 -8,0 -8,0 0,-33.5 z m 38,0 0,-33.54319 19.25,0.2716 19.25,0.27159 0.2999,5.75 0.29991,5.75 -9.61565,0 c -12.22754,0 -13.48416,0.63699 -13.48416,6.83518 0,2.62065 0.54,5.30482 1.2,5.96482 0.76129,0.76129 4.6,1.2 10.5,1.2 l 9.3,0 0,6 0,6 -8.56574,0 c -11.48433,0 -12.43821,0.59796 -12.41895,7.78518 0.008,3.14315 0.3621,6.26051 0.78594,6.92747 0.50275,0.79114 4.40794,1.31254 11.23469,1.5 l 10.46406,0.28735 0,6 0,6 -19.25,0.27159 -19.25,0.2716 0,-33.54319 z m -248,-57.10416 c -106.47687,-1.8988 -186.1067,-6.81832 -189.20228,-11.6889 -0.4219,-0.66382 -0.77758,-1.65694 -0.79039,-2.20694 -0.0128,-0.55 -0.68347,-6.29227 -1.49033,-12.7606 -3.360498,-26.9398 -8.292147,-89.06507 -8.667191,-109.18285 -0.124024,-6.6528 -0.258531,-7.27248 -0.771975,-3.55655 -1.131598,8.18968 -2.226192,-52.24592 -1.42376,-78.6098 0.433408,-14.23961 1.074688,-24.0902 1.425066,-21.8902 0.522757,3.28235 0.662512,2.71336 0.778958,-3.17136 0.212606,-10.74434 2.902512,-42.65981 5.168911,-61.32864 8.105741,-66.76879 24.373841,-117.06015 57.740631,-178.5 21.35695,-39.32555 44.77617,-74.23698 94.24994,-140.5 33.68012,-45.10968 39.41292,-53.35859 43.97319,-63.27286 6.1888,-13.45478 8.13131,-36.95777 8.90358,-107.727143 l 0.60565,-55.5 3.65232,-1.785693 c 4.69577,-2.295851 21.57017,-5.564333 33.24237,-6.43887 6.12728,-0.459084 8.12411,-0.876344 6.10531,-1.275766 -1.65,-0.326454 3.75,-0.901759 12,-1.278455 15.64966,-0.714565 47.21461,0.246069 42,1.278211 -2.00468,0.39679 0.089,0.824969 6.31047,1.290573 11.31602,0.846866 28.4181,4.203864 33.18953,6.51483 l 3.5,1.69517 0.63517,55.5 c 0.68755,60.077293 1.99654,82.238933 5.88141,99.573973 2.39028,10.66591 9.32883,21.25848 45.47681,69.42603 30.63515,40.82165 44.64672,60.33287 59.67478,83.09755 44.21543,66.97807 69.7571,121.56083 83.24837,177.90245 7.81076,32.61894 13.33877,73.61334 15.29222,113.40343 0.44947,9.15514 0.96021,13.52232 1.29776,11.09657 0.30613,-2.2 0.91594,7.63425 1.35514,21.85389 0.78246,25.33327 -0.28766,87.51387 -1.3535,78.64611 -0.324,-2.69573 -0.83613,2.31613 -1.27729,12.5 -1.65528,38.21103 -8.43539,111.78584 -10.62835,115.33412 -2.27587,3.68244 -53.0676,7.69147 -129.10252,10.19017 -30.26829,0.99468 -187.43642,1.97009 -221,1.37155 z M 405.27037,723.0879 c 16.78344,-16.57231 30.51534,-30.87399 30.51534,-31.78151 0,-2.22066 -38.71149,-42.08703 -40.86782,-42.08703 -0.93527,0 -4.14476,2.475 -7.13218,5.5 -2.98742,3.025 -5.93981,5.5 -6.56085,5.5 -0.62105,0 -1.96313,-0.92151 -2.9824,-2.04779 -1.83362,-2.02612 -1.68761,-2.21341 13.79722,-17.69824 15.48483,-15.48483 15.67212,-15.63084 17.69824,-13.79722 1.12628,1.01927 2.04779,2.3629 2.04779,2.98583 0,0.62293 -2.25,3.34877 -5,6.05742 -2.75,2.70865 -5,5.62085 -5,6.47156 0,1.93454 40.38158,42.41089 41.80307,41.90118 1.85639,-0.66565 62.19693,-60.9211 62.19693,-62.10922 0,-1.71428 -40.1927,-41.76352 -41.91312,-41.76352 -0.8126,0 -2.75211,1.22121 -4.31004,2.7138 l -2.8326,2.71381 -22.47212,-22.45547 c -12.35967,-12.35051 -22.47212,-23.17698 -22.47212,-24.05882 0,-0.88184 0.9,-2.41783 2,-3.41332 1.1,-0.99549 2,-2.63092 2,-3.63429 0,-2.28665 -38.65134,-41.86571 -40.88439,-41.86571 -2.35645,0 -62.40052,60.34372 -61.96648,62.27572 0.43204,1.92312 39.49706,41.72428 40.95257,41.72428 0.57572,0 3.73065,-2.55999 7.01095,-5.68886 l 5.96418,-5.68886 2.69824,2.69824 2.69823,2.69824 -15.72727,15.72727 -15.72727,15.72727 -2.68066,-2.68066 -2.68066,-2.68065 5.75495,-6.55498 c 3.16522,-3.60524 5.6048,-6.95031 5.42128,-7.43349 -0.95891,-2.52465 -39.89801,-41.12352 -41.486,-41.12352 -1.97353,0 -62.34767,59.67284 -62.34767,61.62344 0,1.47651 39.85584,42.37656 41.29465,42.37656 0.60275,0 2.37062,-1.22125 3.92861,-2.71389 l 2.83269,-2.71389 22.97202,22.95573 c 12.63462,12.62566 22.97203,23.27646 22.97203,23.66844 0,0.39199 -1.15824,1.87094 -2.57386,3.28656 -1.41563,1.41563 -2.42813,2.95616 -2.25,3.42341 0.68033,1.7846 40.56515,42.09364 41.65064,42.09364 0.6284,0 14.87444,-13.55916 31.65788,-30.13146 z"
       style="fill:#ba1927" />
    <path
       inkscape:connector-curvature="0"
       id="path3405"
       d="m 258.78571,1041.2194 c 1.20609,-0.7794 1.04625,-0.9724 -0.81574,-0.9847 -2.93509,-0.019 -5.9174,-1.5499 -9.52354,-4.8875 -4.72637,-4.3744 -6.05971,-7.9066 -6.08787,-16.1278 -0.0211,-6.144 0.42204,-8.3066 2.45073,-11.9613 2.80848,-5.0596 7.38727,-8.53374 13.37019,-10.14477 4.7094,-1.26811 13.18559,-0.71461 14.87132,0.97112 0.86314,0.86314 -0.38664,0.98702 -5.0453,0.50009 -11.75654,-1.2288 -19.98679,4.37856 -22.22068,15.13906 -3.24113,15.6125 7.11248,26.9617 22.80755,25.0008 3.79372,-0.474 5.21646,-0.3514 4.74647,0.409 -0.36914,0.5973 -1.88211,1.0929 -3.36215,1.1013 -2.10476,0.012 -2.36421,0.2265 -1.19098,0.9847 1.05262,0.6803 -0.43864,0.9694 -5,0.9694 -4.56136,0 -6.05262,-0.2891 -5,-0.9694 z m 115.83066,0.1258 c 0.94131,-0.5967 0.42926,-1.0238 -1.75,-1.4597 -1.69436,-0.3388 -3.08066,-1.1255 -3.08066,-1.7481 0,-0.6697 0.71467,-0.8551 1.75,-0.454 0.9625,0.3729 3.80706,0.9242 6.32124,1.2251 7.6163,0.9116 12.92876,-2.9513 12.92876,-9.4009 0,-4.3245 -2.67905,-7.2673 -9.39746,-10.3226 -8.20456,-3.7313 -10.85593,-6.6887 -10.78226,-12.027 0.10296,-7.45987 7.14344,-11.92096 16.58019,-10.50584 6.87423,1.03086 5.54916,2.23071 -2.36746,2.14374 -8.32575,-0.0915 -11.43301,2.0305 -11.43301,7.8078 0,4.4699 1.51093,6.1454 8.84017,9.803 3.33291,1.6633 7.29733,4.1858 8.80983,5.6055 6.20858,5.8279 1.50853,18.1505 -6.95034,18.2225 -1.52774,0.013 -1.57302,0.1618 -0.29966,0.9847 1.05964,0.6848 -0.26145,0.9694 -4.5,0.9694 -3.64313,0 -5.4773,-0.3314 -4.66934,-0.8436 z m 191.16934,-0.1258 c 1.20773,-0.7805 1.05192,-0.9724 -0.79966,-0.9847 -3.35684,-0.022 -7.4779,-2.4285 -10.9685,-6.404 -5.97279,-6.8027 -6.4821,-19.6162 -1.1243,-28.2853 4.03092,-6.52222 13.9445,-10.29512 23.34643,-8.88521 6.71038,1.00628 5.5995,2.63861 -1.30461,1.91699 -9.66127,-1.0098 -16.38949,2.27222 -20.27615,9.89072 -1.68803,3.3088 -2.00648,5.4785 -1.7221,11.7334 0.2984,6.5634 0.7543,8.2054 3.15058,11.347 4.30069,5.6385 7.94023,7.161 16.90661,7.0728 4.23956,-0.042 7.4755,0.3009 7.19098,0.7613 -0.28452,0.4603 -1.72826,0.8686 -3.2083,0.9073 -2.40282,0.063 -2.47681,0.1623 -0.69098,0.9297 1.37938,0.5927 -0.17218,0.8765 -5,0.9144 -4.8677,0.038 -6.54308,-0.2403 -5.5,-0.9144 z m -456.55326,-2.2782 c -0.26977,-0.703 -0.36815,-10.2284 -0.21862,-21.1674 0.20265,-14.8248 0.59018,-19.9952 1.52188,-20.3052 0.93051,-0.3096 1.25,1.62925 1.25,7.5856 0,4.4009 0.27315,8.7134 0.60699,9.5834 0.50347,1.312 2.51593,1.5818 11.8,1.5818 7.37234,0 11.60262,-0.4097 12.39301,-1.2 0.74248,-0.7425 1.2,-4.3963 1.2,-9.5834 0,-6.2622 0.31627,-8.27788 1.25,-7.96664 0.94667,0.31556 1.25,5.47224 1.25,21.25004 0,15.7778 -0.30333,20.9344 -1.25,21.25 -0.94159,0.3139 -1.25,-1.9302 -1.25,-9.0952 0,-12.4592 -0.19533,-12.6548 -12.63717,-12.6548 -13.43477,0 -13.36283,-0.065 -13.36283,12.0352 0,6.1787 -0.39187,9.9648 -1.03138,9.9648 -0.56726,0 -1.25211,-0.5752 -1.52188,-1.2782 z m 73.82757,-19.9032 c 6.82199,-20.12758 7.37279,-21.33569 9.85865,-21.62377 2.18972,-0.25376 2.83303,0.25127 3.82146,2.99997 3.54839,9.8678 13.04558,38.2272 13.04558,38.9552 0,0.4675 -0.5625,0.8461 -1.25,0.8414 -0.6875,0 -2.3785,-3.0422 -3.75778,-6.75 l -2.50778,-6.7414 -9.40708,0 -9.40708,0 -2.16974,6.5 c -1.3517,4.0493 -2.78848,6.6201 -3.81083,6.8186 -1.29821,0.2521 -0.13139,-4.1355 5.5846,-21 z m 17.32533,3.7823 c 0.29527,-0.7694 -0.91046,-5.9646 -2.6794,-11.5448 -2.45304,-7.7382 -3.59343,-10.0731 -4.80565,-9.8397 -2.24804,0.4329 -8.47474,19.6447 -6.95897,21.4711 1.55255,1.8707 13.72092,1.7978 14.44402,-0.087 z m 109.40036,-4.1009 c 0,-16.8871 0.27575,-21.57556 1.25,-21.25352 0.83683,0.27661 1.41527,3.61242 1.75,10.09222 0.275,5.3234 0.8375,9.675 1.25,9.6701 0.4125,0 1.0875,-0.014 1.5,-0.021 0.4125,-0.01 4.34282,-4.5066 8.73404,-10 6.9277,-8.66656 10.60092,-11.90364 10.4827,-9.23804 -0.0183,0.4125 -2.93925,4.12504 -6.49101,8.25004 -3.55175,4.125 -6.46179,8.1998 -6.46673,9.0551 -0.005,0.8554 3.18999,6.2554 7.09987,12.0001 8.14634,11.9691 8.64622,12.9448 6.63216,12.9448 -0.81012,0 -4.57077,-4.7125 -8.35699,-10.4722 -3.78622,-5.7597 -7.5165,-10.7224 -8.2895,-11.0283 -0.773,-0.3058 -2.4439,0.4195 -3.7131,1.6119 -2.00407,1.8827 -2.34539,3.29 -2.59454,10.6976 -0.19241,5.7202 -0.69861,8.666 -1.5369,8.9436 -0.97428,0.3227 -1.25,-4.3651 -1.25,-21.2526 z m 120.66667,20.8333 c -1.17557,-1.1755 -0.77703,-41.1471 0.41762,-41.88543 2.22531,-1.37532 15.53799,-0.6946 18.73358,0.95791 5.64135,2.91722 7.55503,9.37262 4.76091,16.05992 -1.8064,4.3233 -6.17696,6.6009 -13.99093,7.291 -3.34832,0.2957 -6.41846,1.0339 -6.82254,1.6405 -0.40408,0.6065 -0.74158,4.5903 -0.75,8.8528 -0.0141,7.1246 -0.58512,8.8469 -2.34864,7.0833 z m 17.43545,-21.6169 c 2.31502,-1.5559 3.69528,-3.477 4.33108,-6.0281 1.83229,-7.3518 -2.53964,-12.6078 -11.17747,-13.43779 -7.02946,-0.67544 -8.25573,0.86734 -8.25573,10.38659 0,10.0264 0.81011,11.3629 6.8873,11.3629 3.35774,0 5.84625,-0.6918 8.21482,-2.2836 z m 35.89788,20.9723 c 0,-0.8129 3.094,-10.4129 6.87556,-21.3333 6.7078,-19.37098 6.94312,-19.85544 9.64435,-19.85544 2.70613,0 2.92267,0.45266 9.56785,20.00004 3.73949,11 6.82453,20.6 6.85565,21.3333 0.13571,3.1976 -2.61495,0.038 -4.47014,-5.1354 -1.1147,-3.1083 -2.50576,-6.1304 -3.09125,-6.7159 -0.63961,-0.6396 -4.58756,-0.9482 -9.89076,-0.7733 l -8.82624,0.2913 -2.14701,6.4382 c -1.98979,5.9667 -4.51801,9.1846 -4.51801,5.7505 z m 23.66815,-16.2663 c 0.33296,-0.8677 -0.86417,-6.0645 -2.66028,-11.5485 -2.41567,-7.3757 -3.66443,-9.8933 -4.79773,-9.6724 -2.22598,0.4337 -8.56347,19.6678 -7.07237,21.4645 1.68039,2.0247 13.7375,1.8226 14.53038,-0.2436 z m 109.33185,-3.9224 0,-21.50004 10.5,0 c 12.76391,0 14.18882,1.80033 1.75,2.21107 l -8.75,0.28893 0,8.00004 0,8 7.9965,0.2965 c 10.78294,0.3998 12.36677,2.1988 1.9535,2.2188 -4.3725,0.01 -8.53111,0.384 -9.24135,0.8346 -0.93539,0.5934 -1.21103,3.2767 -1,9.7347 l 0.29135,8.9154 8.99247,0.2925 c 13.71479,0.446 13.08244,2.2075 -0.79247,2.2075 l -11.7,0 0,-21.5 z m -323,-130.1042 c -106.47687,-1.8988 -186.1067,-6.81832 -189.20228,-11.6889 -0.4219,-0.66382 -0.77758,-1.65694 -0.79039,-2.20694 -0.0128,-0.55 -0.68347,-6.29227 -1.49033,-12.7606 -3.360498,-26.9398 -8.292147,-89.06507 -8.667191,-109.18285 -0.124024,-6.6528 -0.258531,-7.27248 -0.771975,-3.55655 -1.131598,8.18968 -2.226192,-52.24592 -1.42376,-78.6098 0.433408,-14.23961 1.074688,-24.0902 1.425066,-21.8902 0.522757,3.28235 0.662512,2.71336 0.778958,-3.17136 0.212606,-10.74434 2.902512,-42.65981 5.168911,-61.32864 8.105741,-66.76879 24.373841,-117.06015 57.740631,-178.5 21.35695,-39.32555 44.77617,-74.23698 94.24994,-140.5 33.68012,-45.10968 39.41292,-53.35859 43.97319,-63.27286 6.1888,-13.45478 8.13131,-36.95777 8.90358,-107.727143 l 0.60565,-55.5 3.65232,-1.785693 c 4.69577,-2.295851 21.57017,-5.564333 33.24237,-6.43887 6.12728,-0.459084 8.12411,-0.876344 6.10531,-1.275766 -1.65,-0.326454 3.75,-0.901759 12,-1.278455 15.64966,-0.714565 47.21461,0.246069 42,1.278211 -2.00468,0.39679 0.089,0.824969 6.31047,1.290573 11.31602,0.846866 28.4181,4.203864 33.18953,6.51483 l 3.5,1.69517 0.63517,55.5 c 0.68755,60.077293 1.99654,82.238933 5.88141,99.573973 2.39028,10.66591 9.32883,21.25848 45.47681,69.42603 30.63515,40.82165 44.64672,60.33287 59.67478,83.09755 44.21543,66.97807 69.7571,121.56083 83.24837,177.90245 7.81076,32.61894 13.33877,73.61334 15.29222,113.40343 0.44947,9.15514 0.96021,13.52232 1.29776,11.09657 0.30613,-2.2 0.91594,7.63425 1.35514,21.85389 0.78246,25.33327 -0.28766,87.51387 -1.3535,78.64611 -0.324,-2.69573 -0.83613,2.31613 -1.27729,12.5 -1.65528,38.21103 -8.43539,111.78584 -10.62835,115.33412 -2.27587,3.68244 -53.0676,7.69147 -129.10252,10.19017 -30.26829,0.99468 -187.43642,1.97009 -221,1.37155 z m 98.14405,-76.42036 c 67.3143,-6.65944 124.85821,-46.36154 154.32472,-106.47548 35.93011,-73.30019 21.35504,-161.2924 -36.3319,-219.34189 -24.29612,-24.44881 -56.42243,-42.66501 -89.37985,-50.67998 -89.18626,-21.68937 -180.14721,21.45523 -219.30738,104.02187 -11.60493,24.46824 -17.0262,46.9052 -18.12166,75 -3.64278,93.42459 61.35828,175.95497 153.17202,194.47908 18.86762,3.80669 37.37807,4.80346 55.64405,2.9964 z"
       style="fill:#593234" />
    <path
       inkscape:connector-curvature="0"
       id="path3403"
       d="m 258.78571,1041.2194 c 1.20609,-0.7794 1.04625,-0.9724 -0.81574,-0.9847 -2.93509,-0.019 -5.9174,-1.5499 -9.52354,-4.8875 -4.72637,-4.3744 -6.05971,-7.9066 -6.08787,-16.1278 -0.0211,-6.144 0.42204,-8.3066 2.45073,-11.9613 2.80848,-5.0596 7.38727,-8.53374 13.37019,-10.14477 4.7094,-1.26811 13.18559,-0.71461 14.87132,0.97112 0.86314,0.86314 -0.38664,0.98702 -5.0453,0.50009 -11.75654,-1.2288 -19.98679,4.37856 -22.22068,15.13906 -3.24113,15.6125 7.11248,26.9617 22.80755,25.0008 3.79372,-0.474 5.21646,-0.3514 4.74647,0.409 -0.36914,0.5973 -1.88211,1.0929 -3.36215,1.1013 -2.10476,0.012 -2.36421,0.2265 -1.19098,0.9847 1.05262,0.6803 -0.43864,0.9694 -5,0.9694 -4.56136,0 -6.05262,-0.2891 -5,-0.9694 z m 115.83066,0.1258 c 0.94131,-0.5967 0.42926,-1.0238 -1.75,-1.4597 -1.69436,-0.3388 -3.08066,-1.1255 -3.08066,-1.7481 0,-0.6697 0.71467,-0.8551 1.75,-0.454 0.9625,0.3729 3.80706,0.9242 6.32124,1.2251 7.6163,0.9116 12.92876,-2.9513 12.92876,-9.4009 0,-4.3245 -2.67905,-7.2673 -9.39746,-10.3226 -8.20456,-3.7313 -10.85593,-6.6887 -10.78226,-12.027 0.10296,-7.45987 7.14344,-11.92096 16.58019,-10.50584 6.87423,1.03086 5.54916,2.23071 -2.36746,2.14374 -8.32575,-0.0915 -11.43301,2.0305 -11.43301,7.8078 0,4.4699 1.51093,6.1454 8.84017,9.803 3.33291,1.6633 7.29733,4.1858 8.80983,5.6055 6.20858,5.8279 1.50853,18.1505 -6.95034,18.2225 -1.52774,0.013 -1.57302,0.1618 -0.29966,0.9847 1.05964,0.6848 -0.26145,0.9694 -4.5,0.9694 -3.64313,0 -5.4773,-0.3314 -4.66934,-0.8436 z m 191.16934,-0.1258 c 1.20773,-0.7805 1.05192,-0.9724 -0.79966,-0.9847 -3.35684,-0.022 -7.4779,-2.4285 -10.9685,-6.404 -5.97279,-6.8027 -6.4821,-19.6162 -1.1243,-28.2853 4.03092,-6.52222 13.9445,-10.29512 23.34643,-8.88521 6.71038,1.00628 5.5995,2.63861 -1.30461,1.91699 -9.66127,-1.0098 -16.38949,2.27222 -20.27615,9.89072 -1.68803,3.3088 -2.00648,5.4785 -1.7221,11.7334 0.2984,6.5634 0.7543,8.2054 3.15058,11.347 4.30069,5.6385 7.94023,7.161 16.90661,7.0728 4.23956,-0.042 7.4755,0.3009 7.19098,0.7613 -0.28452,0.4603 -1.72826,0.8686 -3.2083,0.9073 -2.40282,0.063 -2.47681,0.1623 -0.69098,0.9297 1.37938,0.5927 -0.17218,0.8765 -5,0.9144 -4.8677,0.038 -6.54308,-0.2403 -5.5,-0.9144 z m -456.55326,-2.2782 c -0.26977,-0.703 -0.36815,-10.2284 -0.21862,-21.1674 0.20265,-14.8248 0.59018,-19.9952 1.52188,-20.3052 0.93051,-0.3096 1.25,1.62925 1.25,7.5856 0,4.4009 0.27315,8.7134 0.60699,9.5834 0.50347,1.312 2.51593,1.5818 11.8,1.5818 7.37234,0 11.60262,-0.4097 12.39301,-1.2 0.74248,-0.7425 1.2,-4.3963 1.2,-9.5834 0,-6.2622 0.31627,-8.27788 1.25,-7.96664 0.94667,0.31556 1.25,5.47224 1.25,21.25004 0,15.7778 -0.30333,20.9344 -1.25,21.25 -0.94159,0.3139 -1.25,-1.9302 -1.25,-9.0952 0,-12.4592 -0.19533,-12.6548 -12.63717,-12.6548 -13.43477,0 -13.36283,-0.065 -13.36283,12.0352 0,6.1787 -0.39187,9.9648 -1.03138,9.9648 -0.56726,0 -1.25211,-0.5752 -1.52188,-1.2782 z m 73.82757,-19.9032 c 6.82199,-20.12758 7.37279,-21.33569 9.85865,-21.62377 2.18972,-0.25376 2.83303,0.25127 3.82146,2.99997 3.54839,9.8678 13.04558,38.2272 13.04558,38.9552 0,0.4675 -0.5625,0.8461 -1.25,0.8414 -0.6875,0 -2.3785,-3.0422 -3.75778,-6.75 l -2.50778,-6.7414 -9.40708,0 -9.40708,0 -2.16974,6.5 c -1.3517,4.0493 -2.78848,6.6201 -3.81083,6.8186 -1.29821,0.2521 -0.13139,-4.1355 5.5846,-21 z m 17.32533,3.7823 c 0.29527,-0.7694 -0.91046,-5.9646 -2.6794,-11.5448 -2.45304,-7.7382 -3.59343,-10.0731 -4.80565,-9.8397 -2.24804,0.4329 -8.47474,19.6447 -6.95897,21.4711 1.55255,1.8707 13.72092,1.7978 14.44402,-0.087 z m 109.40036,-4.1009 c 0,-16.8871 0.27575,-21.57556 1.25,-21.25352 0.83683,0.27661 1.41527,3.61242 1.75,10.09222 0.275,5.3234 0.8375,9.675 1.25,9.6701 0.4125,0 1.0875,-0.014 1.5,-0.021 0.4125,-0.01 4.34282,-4.5066 8.73404,-10 6.9277,-8.66656 10.60092,-11.90364 10.4827,-9.23804 -0.0183,0.4125 -2.93925,4.12504 -6.49101,8.25004 -3.55175,4.125 -6.46179,8.1998 -6.46673,9.0551 -0.005,0.8554 3.18999,6.2554 7.09987,12.0001 8.14634,11.9691 8.64622,12.9448 6.63216,12.9448 -0.81012,0 -4.57077,-4.7125 -8.35699,-10.4722 -3.78622,-5.7597 -7.5165,-10.7224 -8.2895,-11.0283 -0.773,-0.3058 -2.4439,0.4195 -3.7131,1.6119 -2.00407,1.8827 -2.34539,3.29 -2.59454,10.6976 -0.19241,5.7202 -0.69861,8.666 -1.5369,8.9436 -0.97428,0.3227 -1.25,-4.3651 -1.25,-21.2526 z m 120.66667,20.8333 c -1.17557,-1.1755 -0.77703,-41.1471 0.41762,-41.88543 2.22531,-1.37532 15.53799,-0.6946 18.73358,0.95791 5.64135,2.91722 7.55503,9.37262 4.76091,16.05992 -1.8064,4.3233 -6.17696,6.6009 -13.99093,7.291 -3.34832,0.2957 -6.41846,1.0339 -6.82254,1.6405 -0.40408,0.6065 -0.74158,4.5903 -0.75,8.8528 -0.0141,7.1246 -0.58512,8.8469 -2.34864,7.0833 z m 17.43545,-21.6169 c 2.31502,-1.5559 3.69528,-3.477 4.33108,-6.0281 1.83229,-7.3518 -2.53964,-12.6078 -11.17747,-13.43779 -7.02946,-0.67544 -8.25573,0.86734 -8.25573,10.38659 0,10.0264 0.81011,11.3629 6.8873,11.3629 3.35774,0 5.84625,-0.6918 8.21482,-2.2836 z m 35.89788,20.9723 c 0,-0.8129 3.094,-10.4129 6.87556,-21.3333 6.7078,-19.37098 6.94312,-19.85544 9.64435,-19.85544 2.70613,0 2.92267,0.45266 9.56785,20.00004 3.73949,11 6.82453,20.6 6.85565,21.3333 0.13571,3.1976 -2.61495,0.038 -4.47014,-5.1354 -1.1147,-3.1083 -2.50576,-6.1304 -3.09125,-6.7159 -0.63961,-0.6396 -4.58756,-0.9482 -9.89076,-0.7733 l -8.82624,0.2913 -2.14701,6.4382 c -1.98979,5.9667 -4.51801,9.1846 -4.51801,5.7505 z m 23.66815,-16.2663 c 0.33296,-0.8677 -0.86417,-6.0645 -2.66028,-11.5485 -2.41567,-7.3757 -3.66443,-9.8933 -4.79773,-9.6724 -2.22598,0.4337 -8.56347,19.6678 -7.07237,21.4645 1.68039,2.0247 13.7375,1.8226 14.53038,-0.2436 z m 109.33185,-3.9224 0,-21.50004 10.5,0 c 12.76391,0 14.18882,1.80033 1.75,2.21107 l -8.75,0.28893 0,8.00004 0,8 7.9965,0.2965 c 10.78294,0.3998 12.36677,2.1988 1.9535,2.2188 -4.3725,0.01 -8.53111,0.384 -9.24135,0.8346 -0.93539,0.5934 -1.21103,3.2767 -1,9.7347 l 0.29135,8.9154 8.99247,0.2925 c 13.71479,0.446 13.08244,2.2075 -0.79247,2.2075 l -11.7,0 0,-21.5 z m -323,-130.1042 c -106.47687,-1.8988 -186.1067,-6.81832 -189.20228,-11.6889 -0.4219,-0.66382 -0.77758,-1.65694 -0.79039,-2.20694 -0.0128,-0.55 -0.68347,-6.29227 -1.49033,-12.7606 -3.360498,-26.9398 -8.292147,-89.06507 -8.667191,-109.18285 -0.124024,-6.6528 -0.258531,-7.27248 -0.771975,-3.55655 -1.131598,8.18968 -2.226192,-52.24592 -1.42376,-78.6098 0.433408,-14.23961 1.074688,-24.0902 1.425066,-21.8902 0.522757,3.28235 0.662512,2.71336 0.778958,-3.17136 0.212606,-10.74434 2.902512,-42.65981 5.168911,-61.32864 8.105741,-66.76879 24.373841,-117.06015 57.740631,-178.5 21.35695,-39.32555 44.77617,-74.23698 94.24994,-140.5 33.68012,-45.10968 39.41292,-53.35859 43.97319,-63.27286 6.1888,-13.45478 8.13131,-36.95777 8.90358,-107.727143 l 0.60565,-55.5 3.65232,-1.785693 c 4.69577,-2.295851 21.57017,-5.564333 33.24237,-6.43887 6.12728,-0.459084 8.12411,-0.876344 6.10531,-1.275766 -1.65,-0.326454 3.75,-0.901759 12,-1.278455 15.64966,-0.714565 47.21461,0.246069 42,1.278211 -2.00468,0.39679 0.089,0.824969 6.31047,1.290573 11.31602,0.846866 28.4181,4.203864 33.18953,6.51483 l 3.5,1.69517 0.63517,55.5 c 0.68755,60.077293 1.99654,82.238933 5.88141,99.573973 2.39028,10.66591 9.32883,21.25848 45.47681,69.42603 30.63515,40.82165 44.64672,60.33287 59.67478,83.09755 44.21543,66.97807 69.7571,121.56083 83.24837,177.90245 7.81076,32.61894 13.33877,73.61334 15.29222,113.40343 0.44947,9.15514 0.96021,13.52232 1.29776,11.09657 0.30613,-2.2 0.91594,7.63425 1.35514,21.85389 0.78246,25.33327 -0.28766,87.51387 -1.3535,78.64611 -0.324,-2.69573 -0.83613,2.31613 -1.27729,12.5 -1.65528,38.21103 -8.43539,111.78584 -10.62835,115.33412 -2.27587,3.68244 -53.0676,7.69147 -129.10252,10.19017 -30.26829,0.99468 -187.43642,1.97009 -221,1.37155 z m 109.68214,-75.95159 c 44.03885,-6.59458 86.93822,-29.98821 115.79465,-63.14445 80.88235,-92.93439 57.32226,-234.55035 -49.21752,-295.83868 -29.10522,-16.74313 -61.89357,-25.46112 -95.75927,-25.46112 -74.49445,0 -142.44413,42.94818 -174.48139,110.28248 -29.36883,61.72594 -24.12016,133.8646 13.8476,190.32369 14.612,21.72845 30.87972,38.20375 51.63379,52.29265 29.58097,20.08105 59.37883,30.31857 97.5,33.49767 7.53722,0.62856 30.95056,-0.49499 40.68214,-1.95224 z"
       style="fill:#3b3b3a" />
  </g>
</svg>
